<svg data-v-423bf9ae="" xmlns="http://www.w3.org/2000/svg" viewBox="0 0 316 90" class="iconLeft"><!----><!----><!----><g data-v-423bf9ae="" id="0deae4f3-66fe-40a9-a03a-9e7728a98f43" fill="white" transform="matrix(2.1329540604962416,0,0,2.1329540604962416,111.29670047337535,35.881619217218145)"><path d="M1.26 6.36L1.26 6.36L1.26 6.36Q1.26 5.25 1.18 4.16L1.18 4.16L1.18 4.16Q1.11 3.08 1.01 2.21L1.01 2.21L1.01 2.21Q0.90 1.20 0.77 0.28L0.77 0.28L0.08 0.15L0.08 0.01L0.08 0.01Q0.25 0.06 0.49 0.08L0.49 0.08L0.49 0.08Q0.69 0.11 0.97 0.13L0.97 0.13L0.97 0.13Q1.25 0.15 1.58 0.15L1.58 0.15L1.58 0.15Q2.04 0.15 2.42 0.13L2.42 0.13L2.42 0.13Q2.80 0.11 3.08 0.08L3.08 0.08L3.08 0.08Q3.40 0.06 3.67 0.01L3.67 0.01L3.67 0.15L2.81 0.28L2.81 0.28Q2.76 0.59 2.72 1.33L2.72 1.33L2.72 1.33Q2.69 1.96 2.66 3.10L2.66 3.10L2.66 3.10Q2.63 4.24 2.63 6.12L2.63 6.12L7.48 6.12L7.48 6.12Q7.48 4.63 7.43 3.54L7.43 3.54L7.43 3.54Q7.39 2.45 7.34 1.72L7.34 1.72L7.34 1.72Q7.28 0.87 7.20 0.28L7.20 0.28L6.43 0.15L6.43 0.01L6.43 0.01Q6.65 0.06 6.92 0.08L6.92 0.08L6.92 0.08Q7.15 0.11 7.48 0.13L7.48 0.13L7.48 0.13Q7.80 0.15 8.20 0.15L8.20 0.15L8.20 0.15Q8.57 0.15 8.89 0.13L8.89 0.13L8.89 0.13Q9.21 0.11 9.46 0.08L9.46 0.08L9.46 0.08Q9.76 0.06 10.01 0.01L10.01 0.01L10.01 0.15L9.10 0.28L9.10 0.28Q9.02 1.08 8.96 2.07L8.96 2.07L8.96 2.07Q8.90 2.93 8.86 4.10L8.86 4.10L8.86 4.10Q8.82 5.28 8.82 6.71L8.82 6.71L8.82 6.71Q8.82 8.67 8.88 10.00L8.88 10.00L8.88 10.00Q8.93 11.34 9.00 12.18L9.00 12.18L9.00 12.18Q9.09 13.16 9.20 13.78L9.20 13.78L9.87 13.86L9.87 14L9.87 14Q9.67 13.97 9.42 13.93L9.42 13.93L9.42 13.93Q9.20 13.90 8.90 13.88L8.90 13.88L8.90 13.88Q8.60 13.86 8.20 13.86L8.20 13.86L8.20 13.86Q7.77 13.86 7.45 13.88L7.45 13.88L7.45 13.88Q7.13 13.90 6.89 13.93L6.89 13.93L6.89 13.93Q6.62 13.97 6.43 14L6.43 14L6.43 13.86L7.07 13.78L7.07 13.78Q7.18 12.94 7.27 11.90L7.27 11.90L7.27 11.90Q7.34 11.02 7.41 9.79L7.41 9.79L7.41 9.79Q7.48 8.57 7.48 7.08L7.48 7.08L2.63 7.08L2.63 7.08Q2.63 8.53 2.66 9.75L2.66 9.75L2.66 9.75Q2.69 10.98 2.72 11.87L2.72 11.87L2.72 11.87Q2.76 12.92 2.81 13.78L2.81 13.78L3.71 13.86L3.71 14L3.71 14Q3.47 13.97 3.18 13.93L3.18 13.93L3.18 13.93Q2.93 13.90 2.58 13.88L2.58 13.88L2.58 13.88Q2.24 13.86 1.85 13.86L1.85 13.86L1.85 13.86Q1.44 13.86 1.11 13.88L1.11 13.88L1.11 13.88Q0.78 13.90 0.55 13.93L0.55 13.93L0.55 13.93Q0.27 13.97 0.04 14L0.04 14L0 13.92L0.87 13.78L0.87 13.78Q0.98 12.92 1.06 11.80L1.06 11.80L1.06 11.80Q1.13 10.84 1.20 9.47L1.20 9.47L1.20 9.47Q1.26 8.11 1.26 6.36ZM17.58 9.52L17.58 9.52L17.58 9.52Q17.70 9.79 17.91 10.30L17.91 10.30L17.91 10.30Q18.12 10.82 18.35 11.35L18.35 11.35L18.35 11.35Q18.58 11.89 18.80 12.29L18.80 12.29L18.80 12.29Q19.03 12.70 19.18 12.73L19.18 12.73L19.18 12.73Q18.76 12.96 18.30 13.30L18.30 13.30L18.30 13.30Q17.85 13.64 17.51 14L17.51 14L17.51 14Q17.44 13.69 17.26 13.14L17.26 13.14L17.26 13.14Q17.08 12.59 16.77 11.93L16.77 11.93L16.77 11.93Q16.51 12.19 16.10 12.55L16.10 12.55L16.10 12.55Q15.69 12.91 15.23 13.23L15.23 13.23L15.23 13.23Q14.77 13.55 14.27 13.78L14.27 13.78L14.27 13.78Q13.78 14 13.33 14L13.33 14L13.33 14Q13.01 14 12.66 13.91L12.66 13.91L12.66 13.91Q12.32 13.82 12.04 13.64L12.04 13.64L12.04 13.64Q11.76 13.47 11.59 13.22L11.59 13.22L11.59 13.22Q11.41 12.96 11.41 12.64L11.41 12.64L11.41 12.64Q11.41 12.25 11.82 11.80L11.82 11.80L11.82 11.80Q12.22 11.35 12.82 10.91L12.82 10.91L12.82 10.91Q13.43 10.47 14.13 10.05L14.13 10.05L14.13 10.05Q14.83 9.63 15.41 9.27L15.41 9.27L15.41 9.27Q14.98 8.72 14.60 8.48L14.60 8.48L14.60 8.48Q14.21 8.23 13.75 8.23L13.75 8.23L13.75 8.23Q13.55 8.23 13.24 8.34L13.24 8.34L13.24 8.34Q12.92 8.46 12.63 8.60L12.63 8.60L12.63 8.60Q12.26 8.75 11.90 8.95L11.90 8.95L11.90 8.95Q12.68 8.41 13.41 7.98L13.41 7.98L13.41 7.98Q13.72 7.80 14.04 7.63L14.04 7.63L14.04 7.63Q14.36 7.46 14.66 7.32L14.66 7.32L14.66 7.32Q14.97 7.18 15.22 7.10L15.22 7.10L15.22 7.10Q15.48 7.01 15.67 7.01L15.67 7.01L15.67 7.01Q16.02 7.01 16.32 7.31L16.32 7.31L16.32 7.31Q16.62 7.62 16.86 8.03L16.86 8.03L16.86 8.03Q17.11 8.44 17.28 8.86L17.28 8.86L17.28 8.86Q17.46 9.28 17.58 9.52ZM14.84 12.64L14.84 12.64L14.84 12.64Q15.18 12.64 15.48 12.54L15.48 12.54L15.48 12.54Q15.79 12.45 16.02 12.26L16.02 12.26L16.02 12.26Q16.25 12.08 16.39 11.83L16.39 11.83L16.39 11.83Q16.53 11.58 16.53 11.28L16.53 11.28L16.53 11.28Q16.42 11.10 16.30 10.88L16.30 10.88L16.30 10.88Q16.17 10.67 16.06 10.47L16.06 10.47L16.06 10.47Q15.95 10.22 15.83 9.99L15.83 9.99L15.83 9.99Q15.71 9.76 15.58 9.60L15.58 9.60L15.58 9.60Q15.27 9.72 14.83 9.92L14.83 9.92L14.83 9.92Q14.39 10.12 13.99 10.39L13.99 10.39L13.99 10.39Q13.58 10.67 13.29 10.99L13.29 10.99L13.29 10.99Q13.01 11.31 13.01 11.66L13.01 11.66L13.01 11.66Q13.01 11.86 13.15 12.03L13.15 12.03L13.15 12.03Q13.30 12.21 13.54 12.34L13.54 12.34L13.54 12.34Q13.79 12.47 14.13 12.56L14.13 12.56L14.13 12.56Q14.46 12.64 14.84 12.64ZM25.14 6.99L25.14 6.99L25.14 6.99Q25.77 6.99 26.29 7.24L26.29 7.24L26.29 7.24Q26.81 7.49 27.18 7.90L27.18 7.90L27.18 7.90Q27.55 8.32 27.75 8.86L27.75 8.86L27.75 8.86Q27.96 9.39 27.96 9.97L27.96 9.97L27.96 9.97Q27.96 10.96 27.62 11.91L27.62 11.91L27.62 11.91Q27.29 12.85 26.66 13.58L26.66 13.58L26.66 13.58Q26.04 14.31 25.16 14.75L25.16 14.75L25.16 14.75Q24.29 15.19 23.21 15.19L23.21 15.19L23.21 15.19Q22.67 15.19 22.35 15.14L22.35 15.14L22.35 15.14Q22.04 15.09 21.75 15.04L21.75 15.04L21.75 15.04Q21.46 14.98 21.12 14.93L21.12 14.93L21.12 14.93Q20.78 14.88 20.17 14.88L20.17 14.88L20.17 14.88Q19.92 14.88 19.59 15.00L19.59 15.00L19.59 15.00Q19.25 15.12 18.95 15.37L18.95 15.37L18.95 15.37Q18.65 15.62 18.43 16.00L18.43 16.00L18.43 16.00Q18.21 16.38 18.21 16.88L18.21 16.88L18.21 16.88Q18.21 17.15 18.33 17.35L18.33 17.35L18.33 17.35Q18.44 17.54 18.63 17.70L18.63 17.70L18.63 17.70Q18.82 17.85 19.05 17.95L19.05 17.95L19.05 17.95Q19.29 18.06 19.54 18.13L19.54 18.13L19.54 18.13Q20.12 18.30 20.87 18.34L20.87 18.34L20.87 18.34Q20.08 18.31 19.46 18.16L19.46 18.16L19.46 18.16Q19.19 18.09 18.94 17.98L18.94 17.98L18.94 17.98Q18.69 17.88 18.49 17.72L18.49 17.72L18.49 17.72Q18.30 17.57 18.18 17.37L18.18 17.37L18.18 17.37Q18.06 17.16 18.06 16.88L18.06 16.88L18.06 16.88Q18.06 16.41 18.35 15.92L18.35 15.92L18.35 15.92Q18.65 15.43 19.14 15.04L19.14 15.04L19.14 15.04Q19.63 14.64 20.26 14.39L20.26 14.39L20.26 14.39Q20.90 14.14 21.59 14.14L21.59 14.14L21.59 14.14Q22.11 14.14 22.41 14.20L22.41 14.20L22.41 14.20Q22.72 14.25 23.00 14.31L23.00 14.31L23.00 14.31Q23.28 14.38 23.63 14.43L23.63 14.43L23.63 14.43Q23.98 14.48 24.58 14.48L24.58 14.48L24.58 14.48Q25.21 14.48 25.62 14.28L25.62 14.28L25.62 14.28Q26.03 14.08 26.26 13.70L26.26 13.70L26.26 13.70Q26.49 13.31 26.58 12.75L26.58 12.75L26.58 12.75Q26.67 12.18 26.67 11.42L26.67 11.42L26.67 11.42Q26.67 10.75 26.42 10.15L26.42 10.15L26.42 10.15Q26.17 9.55 25.74 9.09L25.74 9.09L25.74 9.09Q25.31 8.64 24.76 8.37L24.76 8.37L24.76 8.37Q24.21 8.11 23.60 8.11L23.60 8.11L23.60 8.11Q23.24 8.11 23.00 8.18L23.00 8.18L23.00 8.18Q22.76 8.25 22.55 8.44L22.55 8.44L22.55 8.44Q22.55 8.60 22.53 9.03L22.53 9.03L22.53 9.03Q22.50 9.46 22.49 10.11L22.49 10.11L22.49 10.11Q22.48 10.75 22.53 11.58L22.53 11.58L22.53 11.58Q22.57 12.40 22.72 13.34L22.72 13.34L22.72 13.34Q22.25 13.34 21.75 13.55L21.75 13.55L21.75 13.55Q21.25 13.76 20.87 14L20.87 14L20.87 14Q20.92 13.75 20.96 13.23L20.96 13.23L20.96 13.23Q21 12.71 21.03 12.09L21.03 12.09L21.03 12.09Q21.06 11.47 21.05 10.79L21.05 10.79L21.05 10.79Q21.04 10.12 21 9.55L21 9.55L21 9.55Q20.96 8.99 20.85 8.59L20.85 8.59L20.85 8.59Q20.75 8.19 20.57 8.11L20.57 8.11L20.57 8.11Q20.33 8.06 20.15 8.09L20.15 8.09L20.15 8.09Q20.06 8.11 19.99 8.13L19.99 8.13L19.99 8.13Q20.44 7.81 20.83 7.56L20.83 7.56L20.83 7.56Q21.17 7.35 21.52 7.17L21.52 7.17L21.52 7.17Q21.87 6.99 22.09 6.99L22.09 6.99L22.09 6.99Q22.25 6.99 22.34 7.02L22.34 7.02L22.34 7.02Q22.43 7.06 22.48 7.17L22.48 7.17L22.48 7.17Q22.53 7.29 22.54 7.50L22.54 7.50L22.54 7.50Q22.55 7.70 22.55 8.04L22.55 8.04L22.55 8.04Q23.23 7.55 23.88 7.27L23.88 7.27L23.88 7.27Q24.54 6.99 25.14 6.99ZM35.56 9.52L35.56 9.52L35.56 9.52Q35.67 9.79 35.88 10.30L35.88 10.30L35.88 10.30Q36.09 10.82 36.32 11.35L36.32 11.35L36.32 11.35Q36.55 11.89 36.78 12.29L36.78 12.29L36.78 12.29Q37.00 12.70 37.16 12.73L37.16 12.73L37.16 12.73Q36.74 12.96 36.28 13.30L36.28 13.30L36.28 13.30Q35.83 13.64 35.49 14L35.49 14L35.49 14Q35.42 13.69 35.24 13.14L35.24 13.14L35.24 13.14Q35.06 12.59 34.75 11.93L34.75 11.93L34.75 11.93Q34.48 12.19 34.08 12.55L34.08 12.55L34.08 12.55Q33.67 12.91 33.21 13.23L33.21 13.23L33.21 13.23Q32.75 13.55 32.25 13.78L32.25 13.78L32.25 13.78Q31.75 14 31.30 14L31.30 14L31.30 14Q30.98 14 30.64 13.91L30.64 13.91L30.64 13.91Q30.30 13.82 30.02 13.64L30.02 13.64L30.02 13.64Q29.74 13.47 29.56 13.22L29.56 13.22L29.56 13.22Q29.39 12.96 29.39 12.64L29.39 12.64L29.39 12.64Q29.39 12.25 29.79 11.80L29.79 11.80L29.79 11.80Q30.20 11.35 30.80 10.91L30.80 10.91L30.80 10.91Q31.40 10.47 32.10 10.05L32.10 10.05L32.10 10.05Q32.80 9.63 33.39 9.27L33.39 9.27L33.39 9.27Q32.96 8.72 32.57 8.48L32.57 8.48L32.57 8.48Q32.19 8.23 31.72 8.23L31.72 8.23L31.72 8.23Q31.53 8.23 31.21 8.34L31.21 8.34L31.21 8.34Q30.90 8.46 30.60 8.60L30.60 8.60L30.60 8.60Q30.24 8.75 29.88 8.95L29.88 8.95L29.88 8.95Q30.66 8.41 31.39 7.98L31.39 7.98L31.39 7.98Q31.70 7.80 32.02 7.63L32.02 7.63L32.02 7.63Q32.34 7.46 32.64 7.32L32.64 7.32L32.64 7.32Q32.94 7.18 33.20 7.10L33.20 7.10L33.20 7.10Q33.46 7.01 33.64 7.01L33.64 7.01L33.64 7.01Q33.99 7.01 34.29 7.31L34.29 7.31L34.29 7.31Q34.59 7.62 34.84 8.03L34.84 8.03L34.84 8.03Q35.08 8.44 35.26 8.86L35.26 8.86L35.26 8.86Q35.43 9.28 35.56 9.52ZM32.82 12.64L32.82 12.64L32.82 12.64Q33.15 12.64 33.46 12.54L33.46 12.54L33.46 12.54Q33.77 12.45 34.00 12.26L34.00 12.26L34.00 12.26Q34.23 12.08 34.37 11.83L34.37 11.83L34.37 11.83Q34.51 11.58 34.51 11.28L34.51 11.28L34.51 11.28Q34.40 11.10 34.27 10.88L34.27 10.88L34.27 10.88Q34.15 10.67 34.03 10.47L34.03 10.47L34.03 10.47Q33.92 10.22 33.80 9.99L33.80 9.99L33.80 9.99Q33.68 9.76 33.56 9.60L33.56 9.60L33.56 9.60Q33.25 9.72 32.81 9.92L32.81 9.92L32.81 9.92Q32.37 10.12 31.96 10.39L31.96 10.39L31.96 10.39Q31.56 10.67 31.27 10.99L31.27 10.99L31.27 10.99Q30.98 11.31 30.98 11.66L30.98 11.66L30.98 11.66Q30.98 11.86 31.13 12.03L31.13 12.03L31.13 12.03Q31.28 12.21 31.52 12.34L31.52 12.34L31.52 12.34Q31.77 12.47 32.10 12.56L32.10 12.56L32.10 12.56Q32.44 12.64 32.82 12.64ZM44.73 9.52L44.73 9.52L44.73 9.52Q44.84 9.79 45.05 10.30L45.05 10.30L45.05 10.30Q45.26 10.82 45.49 11.35L45.49 11.35L45.49 11.35Q45.72 11.89 45.95 12.29L45.95 12.29L45.95 12.29Q46.17 12.70 46.33 12.73L46.33 12.73L46.33 12.73Q45.91 12.96 45.45 13.30L45.45 13.30L45.45 13.30Q45.00 13.64 44.66 14L44.66 14L44.66 14Q44.59 13.69 44.41 13.14L44.41 13.14L44.41 13.14Q44.23 12.59 43.92 11.93L43.92 11.93L43.92 11.93Q43.65 12.19 43.25 12.55L43.25 12.55L43.25 12.55Q42.84 12.91 42.38 13.23L42.38 13.23L42.38 13.23Q41.92 13.55 41.42 13.78L41.42 13.78L41.42 13.78Q40.92 14 40.47 14L40.47 14L40.47 14Q40.15 14 39.81 13.91L39.81 13.91L39.81 13.91Q39.47 13.82 39.19 13.64L39.19 13.64L39.19 13.64Q38.91 13.47 38.73 13.22L38.73 13.22L38.73 13.22Q38.56 12.96 38.56 12.64L38.56 12.64L38.56 12.64Q38.56 12.25 38.96 11.80L38.96 11.80L38.96 11.80Q39.37 11.35 39.97 10.91L39.97 10.91L39.97 10.91Q40.57 10.47 41.27 10.05L41.27 10.05L41.27 10.05Q41.97 9.63 42.56 9.27L42.56 9.27L42.56 9.27Q42.13 8.72 41.74 8.48L41.74 8.48L41.74 8.48Q41.36 8.23 40.89 8.23L40.89 8.23L40.89 8.23Q40.70 8.23 40.38 8.34L40.38 8.34L40.38 8.34Q40.07 8.46 39.77 8.60L39.77 8.60L39.77 8.60Q39.41 8.75 39.05 8.95L39.05 8.95L39.05 8.95Q39.83 8.41 40.56 7.98L40.56 7.98L40.56 7.98Q40.87 7.80 41.19 7.63L41.19 7.63L41.19 7.63Q41.51 7.46 41.81 7.32L41.81 7.32L41.81 7.32Q42.11 7.18 42.37 7.10L42.37 7.10L42.37 7.10Q42.63 7.01 42.81 7.01L42.81 7.01L42.81 7.01Q43.16 7.01 43.46 7.31L43.46 7.31L43.46 7.31Q43.76 7.62 44.01 8.03L44.01 8.03L44.01 8.03Q44.25 8.44 44.43 8.86L44.43 8.86L44.43 8.86Q44.60 9.28 44.73 9.52ZM41.99 12.64L41.99 12.64L41.99 12.64Q42.32 12.64 42.63 12.54L42.63 12.54L42.63 12.54Q42.94 12.45 43.17 12.26L43.17 12.26L43.17 12.26Q43.40 12.08 43.54 11.83L43.54 11.83L43.54 11.83Q43.68 11.58 43.68 11.28L43.68 11.28L43.68 11.28Q43.57 11.10 43.44 10.88L43.44 10.88L43.44 10.88Q43.32 10.67 43.20 10.47L43.20 10.47L43.20 10.47Q43.09 10.22 42.97 9.99L42.97 9.99L42.97 9.99Q42.85 9.76 42.73 9.60L42.73 9.60L42.73 9.60Q42.42 9.72 41.98 9.92L41.98 9.92L41.98 9.92Q41.54 10.12 41.13 10.39L41.13 10.39L41.13 10.39Q40.73 10.67 40.44 10.99L40.44 10.99L40.44 10.99Q40.15 11.31 40.15 11.66L40.15 11.66L40.15 11.66Q40.15 11.86 40.30 12.03L40.30 12.03L40.30 12.03Q40.45 12.21 40.69 12.34L40.69 12.34L40.69 12.34Q40.94 12.47 41.27 12.56L41.27 12.56L41.27 12.56Q41.61 12.64 41.99 12.64ZM70.74 15.44L70.74 15.44L70.74 15.44Q70.36 15.61 69.92 15.75L69.92 15.75L69.92 15.75Q69.54 15.86 69.05 15.95L69.05 15.95L69.05 15.95Q68.57 16.04 68.04 16.04L68.04 16.04L68.04 16.04Q67.56 16.04 66.90 15.95L66.90 15.95L66.90 15.95Q66.23 15.85 65.41 15.60L65.41 15.60L65.41 15.60Q64.60 15.36 63.64 14.97L63.64 14.97L63.64 14.97Q62.69 14.57 61.66 13.99L61.66 13.99L61.66 13.99Q61.49 13.99 61.31 14.01L61.31 14.01L61.31 14.01Q61.12 14.04 60.93 14.04L60.93 14.04L60.93 14.04Q59.91 14.04 59.15 13.74L59.15 13.74L59.15 13.74Q58.39 13.44 57.85 12.93L57.85 12.93L57.85 12.93Q57.32 12.42 56.98 11.75L56.98 11.75L56.98 11.75Q56.64 11.07 56.45 10.33L56.45 10.33L56.45 10.33Q56.27 9.59 56.20 8.83L56.20 8.83L56.20 8.83Q56.13 8.06 56.13 7.38L56.13 7.38L56.13 7.38Q56.13 5.82 56.52 4.47L56.52 4.47L56.52 4.47Q56.92 3.12 57.59 2.12L57.59 2.12L57.59 2.12Q58.25 1.12 59.11 0.55L59.11 0.55L59.11 0.55Q59.96-0.01 60.89-0.01L60.89-0.01L60.89-0.01Q62.01-0.01 62.92 0.53L62.92 0.53L62.92 0.53Q63.83 1.06 64.46 1.98L64.46 1.98L64.46 1.98Q65.10 2.90 65.44 4.12L65.44 4.12L65.44 4.12Q65.79 5.33 65.79 6.69L65.79 6.69L65.79 6.69Q65.79 7.94 65.61 8.96L65.61 8.96L65.61 8.96Q65.44 9.98 65.11 10.81L65.11 10.81L65.11 10.81Q64.79 11.63 64.34 12.26L64.34 12.26L64.34 12.26Q63.90 12.88 63.35 13.30L63.35 13.30L63.35 13.30Q63.70 13.30 64.25 13.51L64.25 13.51L64.25 13.51Q64.43 13.57 64.76 13.71L64.76 13.71L64.76 13.71Q65.10 13.86 65.53 14.06L65.53 14.06L65.53 14.06Q65.95 14.25 66.43 14.46L66.43 14.46L66.43 14.46Q66.91 14.67 67.36 14.87L67.36 14.87L67.36 14.87Q67.82 15.06 68.22 15.20L68.22 15.20L68.22 15.20Q68.63 15.34 68.91 15.39L68.91 15.39L68.91 15.39Q69.24 15.46 69.57 15.48L69.57 15.48L69.57 15.48Q69.89 15.50 70.15 15.48L70.15 15.48L70.15 15.48Q70.46 15.47 70.74 15.44ZM57.97 7.04L57.97 7.04L57.97 7.04Q57.97 7.56 58.04 8.26L58.04 8.26L58.04 8.26Q58.10 8.96 58.25 9.69L58.25 9.69L58.25 9.69Q58.39 10.42 58.63 11.13L58.63 11.13L58.63 11.13Q58.87 11.84 59.23 12.40L59.23 12.40L59.23 12.40Q59.58 12.96 60.06 13.31L60.06 13.31L60.06 13.31Q60.54 13.65 61.15 13.65L61.15 13.65L61.15 13.65Q61.95 13.65 62.47 13.14L62.47 13.14L62.47 13.14Q63 12.63 63.30 11.74L63.30 11.74L63.30 11.74Q63.60 10.85 63.72 9.63L63.72 9.63L63.72 9.63Q63.84 8.41 63.84 7L63.84 7L63.84 7Q63.84 6.47 63.77 5.77L63.77 5.77L63.77 5.77Q63.70 5.07 63.54 4.33L63.54 4.33L63.54 4.33Q63.38 3.60 63.13 2.89L63.13 2.89L63.13 2.89Q62.87 2.18 62.52 1.63L62.52 1.63L62.52 1.63Q62.16 1.08 61.69 0.74L61.69 0.74L61.69 0.74Q61.22 0.41 60.62 0.41L60.62 0.41L60.62 0.41Q59.95 0.41 59.45 0.96L59.45 0.96L59.45 0.96Q58.95 1.51 58.63 2.44L58.63 2.44L58.63 2.44Q58.30 3.36 58.13 4.56L58.13 4.56L58.13 4.56Q57.97 5.75 57.97 7.04ZM74.41 12.18L74.41 12.18L74.41 12.18Q74.49 12.32 74.59 12.47L74.59 12.47L74.59 12.47Q74.68 12.61 74.80 12.72L74.80 12.72L74.80 12.72Q74.93 12.82 75.12 12.86L75.12 12.86L75.12 12.86Q75.31 12.89 75.59 12.80L75.59 12.80L75.59 12.80Q74.96 13.16 74.35 13.45L74.35 13.45L74.35 13.45Q73.74 13.73 73.26 14.03L73.26 14.03L73.26 14.03Q72.88 13.85 72.79 13.40L72.79 13.40L72.79 13.40Q72.70 12.96 72.70 12.22L72.70 12.22L72.70 12.22Q72.44 12.43 72.14 12.73L72.14 12.73L72.14 12.73Q71.85 13.03 71.50 13.31L71.50 13.31L71.50 13.31Q71.15 13.59 70.73 13.80L70.73 13.80L70.73 13.80Q70.31 14 69.79 14L69.79 14L69.79 14Q69.64 14 69.42 13.94L69.42 13.94L69.42 13.94Q69.20 13.87 68.98 13.74L68.98 13.74L68.98 13.74Q68.75 13.61 68.56 13.39L68.56 13.39L68.56 13.39Q68.36 13.17 68.24 12.87L68.24 12.87L68.24 12.87Q68.21 12.70 68.19 12.46L68.19 12.46L68.19 12.46Q68.18 12.22 68.17 11.98L68.17 11.98L68.17 11.98Q68.15 11.73 68.14 11.49L68.14 11.49L68.14 11.49Q68.14 11.26 68.14 11.09L68.14 11.09L68.14 11.09Q68.14 10.50 68.15 10.02L68.15 10.02L68.15 10.02Q68.17 9.55 68.14 9.18L68.14 9.18L68.14 9.18Q68.11 8.82 68.01 8.58L68.01 8.58L68.01 8.58Q67.91 8.34 67.69 8.23L67.69 8.23L67.69 8.23Q67.52 8.16 67.35 8.13L67.35 8.13L67.35 8.13Q67.27 8.12 67.20 8.11L67.20 8.11L67.20 8.11Q67.51 8.01 67.86 7.85L67.86 7.85L67.86 7.85Q68.15 7.73 68.51 7.52L68.51 7.52L68.51 7.52Q68.87 7.32 69.23 7.04L69.23 7.04L69.23 7.04Q69.50 7.11 69.59 7.43L69.59 7.43L69.59 7.43Q69.68 7.74 69.68 8.21L69.68 8.21L69.68 8.21Q69.68 8.68 69.64 9.25L69.64 9.25L69.64 9.25Q69.59 9.81 69.59 10.37L69.59 10.37L69.59 10.37Q69.59 10.82 69.67 11.22L69.67 11.22L69.67 11.22Q69.75 11.62 69.94 11.92L69.94 11.92L69.94 11.92Q70.13 12.22 70.45 12.40L70.45 12.40L70.45 12.40Q70.78 12.59 71.30 12.59L71.30 12.59L71.30 12.59Q71.72 12.59 72.09 12.39L72.09 12.39L72.09 12.39Q72.46 12.19 72.70 11.98L72.70 11.98L72.70 11.98Q72.74 11.66 72.75 11.37L72.75 11.37L72.75 11.37Q72.76 11.07 72.76 10.75L72.76 10.75L72.76 10.75Q72.76 10.22 72.77 9.79L72.77 9.79L72.77 9.79Q72.79 9.35 72.77 9.03L72.77 9.03L72.77 9.03Q72.74 8.71 72.68 8.50L72.68 8.50L72.68 8.50Q72.62 8.30 72.46 8.23L72.46 8.23L72.46 8.23Q72.38 8.19 72.26 8.18L72.26 8.18L72.26 8.18Q72.14 8.16 72.03 8.15L72.03 8.15L72.03 8.15Q71.89 8.13 71.76 8.13L71.76 8.13L71.76 8.13Q72.25 7.99 72.72 7.81L72.72 7.81L72.72 7.81Q73.11 7.66 73.53 7.45L73.53 7.45L73.53 7.45Q73.96 7.24 74.26 6.99L74.26 6.99L74.26 6.99Q74.26 7.15 74.24 7.56L74.24 7.56L74.24 7.56Q74.23 7.97 74.22 8.50L74.22 8.50L74.22 8.50Q74.21 9.03 74.21 9.63L74.21 9.63L74.21 9.63Q74.20 10.22 74.22 10.74L74.22 10.74L74.22 10.74Q74.24 11.26 74.28 11.65L74.28 11.65L74.28 11.65Q74.33 12.04 74.41 12.18ZM78.69 5.24L78.69 5.24L78.69 5.24Q78.51 5.38 78.33 5.53L78.33 5.53L78.33 5.53Q78.18 5.67 77.99 5.85L77.99 5.85L77.99 5.85Q77.80 6.03 77.64 6.23L77.64 6.23L77.64 6.23Q77.49 5.98 77.32 5.80L77.32 5.80L77.32 5.80Q77.15 5.61 77 5.49L77 5.49L77 5.49Q76.83 5.33 76.66 5.24L76.66 5.24L76.66 5.24Q76.85 5.10 77.01 4.94L77.01 4.94L77.01 4.94Q77.17 4.80 77.34 4.62L77.34 4.62L77.34 4.62Q77.50 4.44 77.64 4.23L77.64 4.23L77.64 4.23Q77.80 4.47 77.98 4.65L77.98 4.65L77.98 4.65Q78.16 4.84 78.32 4.97L78.32 4.97L78.32 4.97Q78.50 5.12 78.69 5.24ZM76.44 8.12L76.44 8.12L76.44 8.12Q76.78 7.98 77.08 7.88L77.08 7.88L77.08 7.88Q77.38 7.77 77.65 7.65L77.65 7.65L77.65 7.65Q77.92 7.53 78.18 7.38L78.18 7.38L78.18 7.38Q78.44 7.24 78.69 7.01L78.69 7.01L78.69 7.01Q78.81 7.39 78.79 7.93L78.79 7.93L78.79 7.93Q78.78 8.47 78.73 9.06L78.73 9.06L78.73 9.06Q78.68 9.66 78.67 10.26L78.67 10.26L78.67 10.26Q78.65 10.86 78.77 11.35L78.77 11.35L78.77 11.35Q78.89 11.84 79.19 12.17L79.19 12.17L79.19 12.17Q79.49 12.50 80.09 12.56L80.09 12.56L80.09 12.56Q79.49 12.95 79.06 13.30L79.06 13.30L79.06 13.30Q78.64 13.65 78.22 14.01L78.22 14.01L78.22 14.01Q78.09 13.96 77.94 13.89L77.94 13.89L77.94 13.89Q77.78 13.82 77.64 13.69L77.64 13.69L77.64 13.69Q77.50 13.55 77.40 13.35L77.40 13.35L77.40 13.35Q77.29 13.15 77.28 12.82L77.28 12.82L77.28 12.82Q77.29 11.87 77.32 11.01L77.32 11.01L77.32 11.01Q77.35 10.15 77.29 9.50L77.29 9.50L77.29 9.50Q77.24 8.85 77.05 8.48L77.05 8.48L77.05 8.48Q76.86 8.11 76.44 8.12ZM83.45-6.83L83.45-6.83L83.45-6.83Q83.29-6.37 83.19-5.64L83.19-5.64L83.19-5.64Q83.10-4.90 83.06-4.00L83.06-4.00L83.06-4.00Q83.02-3.09 83.01-2.07L83.01-2.07L83.01-2.07Q83.01-1.04 83.01 0.01L83.01 0.01L83.01 0.01Q83.01 0.71 82.98 1.80L82.98 1.80L82.98 1.80Q82.96 2.88 82.94 4.11L82.94 4.11L82.94 4.11Q82.92 5.33 82.91 6.59L82.91 6.59L82.91 6.59Q82.89 7.84 82.90 8.90L82.90 8.90L82.90 8.90Q82.91 9.95 82.94 10.70L82.94 10.70L82.94 10.70Q82.98 11.45 83.06 11.65L83.06 11.65L83.06 11.65Q83.23 12.03 83.51 12.36L83.51 12.36L83.51 12.36Q83.79 12.68 84.32 12.73L84.32 12.73L84.32 12.73Q83.79 13.12 83.38 13.44L83.38 13.44L83.38 13.44Q82.98 13.76 82.64 14.10L82.64 14.10L82.64 14.10Q82.38 13.96 82.17 13.74L82.17 13.74L82.17 13.74Q81.96 13.52 81.81 13.29L81.81 13.29L81.81 13.29Q81.66 13.05 81.57 12.82L81.57 12.82L81.57 12.82Q81.48 12.59 81.47 12.40L81.47 12.40L81.47 12.40Q81.45 12.05 81.45 11.19L81.45 11.19L81.45 11.19Q81.45 10.33 81.46 9.19L81.46 9.19L81.46 9.19Q81.47 8.05 81.49 6.73L81.49 6.73L81.49 6.73Q81.51 5.42 81.52 4.16L81.52 4.16L81.52 4.16Q81.54 2.90 81.54 1.81L81.54 1.81L81.54 1.81Q81.55 0.71 81.55 0.01L81.55 0.01L81.55 0.01Q81.55-1.55 81.56-2.70L81.56-2.70L81.56-2.70Q81.56-3.84 81.54-4.66L81.54-4.66L81.54-4.66Q81.52-5.49 81.47-6.04L81.47-6.04L81.47-6.04Q81.42-6.59 81.33-6.99L81.33-6.99L81.33-6.99Q81.75-6.99 82.19-7.20L82.19-7.20L82.19-7.20Q82.64-7.41 83.11-7.71L83.11-7.71L83.11-7.71Q83.58-8.02 84.08-8.39L84.08-8.39L84.08-8.39Q84.57-8.75 85.09-9.06L85.09-9.06L85.09-9.06Q85.61-9.37 86.14-9.58L86.14-9.58L86.14-9.58Q86.67-9.79 87.22-9.79L87.22-9.79L87.22-9.79Q87.99-9.79 88.53-9.54L88.53-9.54L88.53-9.54Q89.07-9.30 89.40-8.90L89.40-8.90L89.40-8.90Q89.74-8.50 89.89-7.99L89.89-7.99L89.89-7.99Q90.05-7.48 90.05-6.93L90.05-6.93L90.05-6.93Q90.05-5.61 89.63-4.50L89.63-4.50L89.63-4.50Q89.21-3.39 88.52-2.46L88.52-2.46L88.52-2.46Q87.82-1.54 86.94-0.79L86.94-0.79L86.94-0.79Q86.06-0.04 85.13 0.55L85.13 0.55L85.13 0.55Q82.98 1.92 80.23 2.77L80.23 2.77L80.23 2.77Q82.94 1.90 85.06 0.53L85.06 0.53L85.06 0.53Q85.96-0.06 86.83-0.80L86.83-0.80L86.83-0.80Q87.70-1.55 88.38-2.48L88.38-2.48L88.38-2.48Q89.07-3.40 89.48-4.52L89.48-4.52L89.48-4.52Q89.89-5.63 89.89-6.93L89.89-6.93L89.89-6.93Q89.89-7.45 89.77-7.94L89.77-7.94L89.77-7.94Q89.64-8.43 89.33-8.81L89.33-8.81L89.33-8.81Q89.03-9.18 88.51-9.41L88.51-9.41L88.51-9.41Q87.99-9.63 87.22-9.63L87.22-9.63L87.22-9.63Q86.42-9.63 85.76-9.31L85.76-9.31L85.76-9.31Q85.09-8.99 84.61-8.53L84.61-8.53L84.61-8.53Q84.13-8.08 83.83-7.60L83.83-7.60L83.83-7.60Q83.52-7.13 83.45-6.83ZM87.28-0.03L87.28-0.03L87.28-0.03Q87.28-3.22 87.22-4.93L87.22-4.93L87.22-4.93Q87.16-6.65 87.00-7.01L87.00-7.01L87.00-7.01Q87.42-7.01 87.86-7.22L87.86-7.22L87.86-7.22Q88.30-7.42 88.76-7.73L88.76-7.73L88.76-7.73Q89.22-8.04 89.71-8.40L89.71-8.40L89.71-8.40Q90.20-8.76 90.71-9.07L90.71-9.07L90.71-9.07Q91.22-9.38 91.78-9.58L91.78-9.58L91.78-9.58Q92.33-9.79 92.92-9.79L92.92-9.79L92.92-9.79Q93.70-9.79 94.23-9.55L94.23-9.55L94.23-9.55Q94.77-9.32 95.09-8.93L95.09-8.93L95.09-8.93Q95.41-8.54 95.54-8.04L95.54-8.04L95.54-8.04Q95.68-7.55 95.68-7.01L95.68-7.01L95.68-7.01Q95.68-5.70 95.26-4.59L95.26-4.59L95.26-4.59Q94.84-3.47 94.15-2.54L94.15-2.54L94.15-2.54Q93.46-1.61 92.58-0.85L92.58-0.85L92.58-0.85Q91.70-0.10 90.79 0.49L90.79 0.49L90.79 0.49Q88.65 1.88 85.92 2.74L85.92 2.74L85.92 2.74Q88.61 1.88 90.72 0.49L90.72 0.49L90.72 0.49Q91.62-0.10 92.48-0.85L92.48-0.85L92.48-0.85Q93.35-1.61 94.03-2.54L94.03-2.54L94.03-2.54Q94.71-3.47 95.12-4.59L95.12-4.59L95.12-4.59Q95.54-5.70 95.54-7.01L95.54-7.01L95.54-7.01Q95.54-7.55 95.41-8.02L95.41-8.02L95.41-8.02Q95.28-8.50 94.98-8.86L94.98-8.86L94.98-8.86Q94.68-9.23 94.18-9.44L94.18-9.44L94.18-9.44Q93.67-9.65 92.92-9.65L92.92-9.65L92.92-9.65Q92.09-9.65 91.43-9.33L91.43-9.33L91.43-9.33Q90.78-9.02 90.29-8.57L90.29-8.57L90.29-8.57Q89.81-8.13 89.51-7.66L89.51-7.66L89.51-7.66Q89.21-7.20 89.11-6.87L89.11-6.87L89.11-6.87Q88.96-6.40 88.87-5.85L88.87-5.85L88.87-5.85Q88.79-5.31 88.75-4.53L88.75-4.53L88.75-4.53Q88.70-3.75 88.70-2.65L88.70-2.65L88.70-2.65Q88.69-1.55 88.69 0.03L88.69 0.03L88.69 0.03Q88.69 0.71 88.69 1.48L88.69 1.48L88.69 1.48Q88.69 2.25 88.70 3.03L88.70 3.03L88.70 3.03Q88.70 3.81 88.71 4.52L88.71 4.52L88.71 4.52Q88.72 5.24 88.73 5.80L88.73 5.80L88.73 5.80Q88.73 6.36 88.73 6.71L88.73 6.71L88.73 6.71Q88.73 7.06 88.73 7.08L88.73 7.08L88.73 7.08Q88.98 7.17 89.27 7.20L89.27 7.20L89.27 7.20Q89.56 7.24 89.84 7.24L89.84 7.24L89.84 7.24Q90.12 7.24 90.37 7.22L90.37 7.22L90.37 7.22Q90.62 7.20 90.79 7.18L90.79 7.18L90.79 7.18Q90.62 7.38 90.35 7.51L90.35 7.51L90.35 7.51Q90.08 7.64 89.78 7.74L89.78 7.74L89.78 7.74Q89.47 7.84 89.19 7.90L89.19 7.90L89.19 7.90Q88.90 7.97 88.69 8.02L88.69 8.02L88.69 8.02Q88.72 8.54 88.68 9.06L88.68 9.06L88.68 9.06Q88.63 9.59 88.63 10.08L88.63 10.08L88.63 10.08Q88.63 10.57 88.72 11.00L88.72 11.00L88.72 11.00Q88.80 11.44 89.06 11.77L89.06 11.77L89.06 11.77Q89.32 12.11 89.80 12.33L89.80 12.33L89.80 12.33Q90.29 12.54 91.08 12.59L91.08 12.59L91.08 12.59Q90.87 12.77 90.64 13.01L90.64 13.01L90.64 13.01Q90.41 13.24 90.16 13.45L90.16 13.45L90.16 13.45Q89.91 13.66 89.64 13.81L89.64 13.81L89.64 13.81Q89.38 13.96 89.10 13.96L89.10 13.96L89.10 13.96Q88.80 13.96 88.51 13.84L88.51 13.84L88.51 13.84Q88.21 13.72 87.98 13.48L87.98 13.48L87.98 13.48Q87.75 13.24 87.60 12.91L87.60 12.91L87.60 12.91Q87.44 12.57 87.43 12.12L87.43 12.12L87.43 12.12Q87.39 10.99 87.36 9.93L87.36 9.93L87.36 9.93Q87.33 8.86 87.33 7.98L87.33 7.98L87.33 7.98Q86.97 7.95 86.72 7.92L86.72 7.92L86.72 7.92Q86.48 7.90 86.32 7.87L86.32 7.87L86.32 7.87Q86.14 7.83 86.02 7.78L86.02 7.78L86.02 7.78Q86.20 7.71 86.41 7.62L86.41 7.62L86.41 7.62Q86.59 7.53 86.80 7.41L86.80 7.41L86.80 7.41Q87.01 7.29 87.22 7.13L87.22 7.13L87.22 7.13Q87.23 7.07 87.24 6.71L87.24 6.71L87.24 6.71Q87.25 6.36 87.26 5.79L87.26 5.79L87.26 5.79Q87.26 5.22 87.27 4.50L87.27 4.50L87.27 4.50Q87.28 3.78 87.28 3.00L87.28 3.00L87.28 3.00Q87.28 2.23 87.28 1.45L87.28 1.45L87.28 1.45Q87.28 0.67 87.28-0.03Z"></path></g><!----><g data-v-423bf9ae="" id="f334eab2-21dc-4d68-9205-37593f0bd6d7" transform="matrix(1.053487216940414,0,0,1.053487216940414,-8.081475405948481,-8.47582146085486)" stroke="none" fill="white"><path style="text-indent:0;text-transform:none;block-progression:tb" d="M57.38 8.896a14.23 14.23 0 0 0-1.46.073c-1.645-.058-3.396.1-5.233.482-5.468-1.083-10.217-.33-13.72 1.796-1.506.661-3.016 1.56-4.504 2.7-5.393 1.397-9.343 4.134-11.576 7.567-1.071 1.25-2.042 2.717-2.89 4.392-4.248 3.596-6.618 7.772-7.144 11.83-.424 1.595-.665 3.342-.702 5.223-2.268 5.083-2.588 9.872-1.3 13.757.31 1.621.85 3.3 1.634 5.01.162 5.562 1.947 10.016 4.792 12.957.981 1.327 2.2 2.604 3.647 3.805 2.563 4.947 6.111 8.187 9.955 9.6 1.456.766 3.1 1.386 4.92 1.84 4.46 3.35 9.07 4.73 13.15 4.332 1.642.056 3.388-.098 5.22-.48 5.468 1.083 10.215.33 13.717-1.795 1.507-.662 3.02-1.56 4.508-2.7 5.395-1.398 9.345-4.135 11.579-7.57 1.07-1.25 2.04-2.717 2.887-4.39 4.248-3.596 6.618-7.771 7.143-11.83.424-1.595.666-3.341.703-5.223 2.268-5.083 2.588-9.871 1.3-13.756-.31-1.62-.85-3.298-1.633-5.008-.163-5.567-1.95-10.025-4.8-12.966-.98-1.324-2.195-2.6-3.64-3.799-2.561-4.943-6.105-8.182-9.945-9.597-1.46-.768-3.109-1.391-4.933-1.845-3.93-2.951-7.977-4.381-11.675-4.405zm-11.279.54a23.88 23.88 0 0 1 3.383.293c-.777.2-1.568.437-2.37.718a12.032 12.032 0 0 0-1.477-.388c-1.404-.267-2.88-.285-4.389-.066a18.83 18.83 0 0 1 4.853-.558zm9.837.02c3.16.118 5.895 1.025 8.016 2.594.224.165.437.341.648.52-.095-.007-.187-.019-.282-.026a36.57 36.57 0 0 0-4.95-.03c-2.14-1.072-4.219-1.89-6.22-2.467.102-.034.203-.074.307-.106.796-.243 1.626-.4 2.48-.484zm-2.851.1c-.256.084-.512.168-.76.267a27.773 27.773 0 0 0-.431-.109c.402-.064.799-.116 1.19-.157zm7.222.14c2.452.495 5.007 1.595 7.543 3.338a29.06 29.06 0 0 0-2.45-.381c-.367-.351-.75-.687-1.16-.99-1.152-.852-2.474-1.51-3.933-1.967zm-9.624.248c.306.062.613.124.923.197-.77.365-1.5.811-2.19 1.33a11.948 11.948 0 0 0-1.578-.76 27.28 27.28 0 0 1 2.845-.767zm-7.047.385c.65.02 1.287.088 1.909.206.27.052.537.118.803.188-.088.033-.172.06-.258.094a36.553 36.553 0 0 0-4.471 2.12c-2.393-.037-4.625.13-6.678.48.077-.076.149-.155.228-.228.614-.567 1.3-1.073 2.036-1.52 2.2-.96 4.378-1.402 6.431-1.34zm8.731.006c.122.032.241.057.364.091 1.827.508 3.731 1.225 5.689 2.157-2.01.163-4.13.477-6.35.963a12.813 12.813 0 0 0-2.22-1.805 12.108 12.108 0 0 1 2.517-1.406zm-5.244.624c.648.221 1.278.495 1.881.83a13.405 13.405 0 0 0-1.65 1.606 47.82 47.82 0 0 0-4.748-.44 35.452 35.452 0 0 1 3.66-1.684c.288-.112.572-.21.857-.312zm2.32 1.094c.737.452 1.432.99 2.082 1.618-.35.08-.701.162-1.057.251a55.497 55.497 0 0 0-2.545-.448c.475-.523.985-.996 1.52-1.421zm11.797.875c1.05-.01 2.065.021 3.042.097.308.024.605.059.905.091.49.48.934 1 1.334 1.563-.735.178-1.464.423-2.182.733a47.826 47.826 0 0 0-4.09-2.453c.332-.013.666-.027.99-.03zm-26.571.076a12.49 12.49 0 0 0-.563.57c-.147.029-.292.057-.436.087.332-.23.666-.45.999-.657zm24.597 0a46.104 46.104 0 0 1 4.558 2.65c-.504.244-1.003.52-1.493.83a69.395 69.395 0 0 0-3.76-.38 68.007 68.007 0 0 0-5.668-1.64c-.142-.172-.285-.346-.433-.509 2.391-.51 4.66-.82 6.796-.951zm6.676.2c1.01.134 1.974.318 2.893.542.25.189.497.38.745.582-.85-.006-1.703.077-2.547.245-.331-.486-.698-.94-1.091-1.369zm-25.157.209a47.734 47.734 0 0 0-5.292 3.623c-.924-.33-1.856-.549-2.787-.66a12.15 12.15 0 0 1 1.654-2.36c.125-.024.246-.053.373-.076a35.178 35.178 0 0 1 6.052-.527zm.952.012c1.67.031 3.424.164 5.256.41-.35.437-.678.903-.985 1.396a69.192 69.192 0 0 0-3.55 1.29c-2.045.255-3.98.587-5.823.982-.202-.093-.404-.191-.606-.273a46.26 46.26 0 0 1 5.708-3.805zm5.81.485c.6.087 1.21.188 1.827.3-.866.235-1.742.49-2.635.775.256-.376.526-.735.809-1.075zm22.484.16c.385.115.761.24 1.128.37a12.682 12.682 0 0 0-.788-.085c-.113-.096-.226-.191-.34-.285zm-18.106.006c.061.065.126.125.188.191-.18-.041-.355-.073-.534-.112l.346-.079zm-18.332.094a12.69 12.69 0 0 0-1.4 2.148 11.935 11.935 0 0 0-1.747 0 27.07 27.07 0 0 1 2.23-1.927c.302-.077.606-.152.917-.22zm16.89.249c.71.143 1.431.306 2.163.481.258.321.51.652.748 1.006a88.587 88.587 0 0 0-3.914.052c-1.19.044-2.341.123-3.475.212.102-.183.208-.357.316-.533 1.422-.47 2.81-.877 4.162-1.218zm-18.98.3a28.837 28.837 0 0 0-1.827 1.678c-.502.068-1.004.159-1.499.29-1.383.37-2.72.995-3.986 1.849 1.916-1.609 4.367-2.922 7.312-3.817zm37.904.084c.259-.002.518.013.776.028.097.082.194.157.29.242 1.427 1.25 2.83 2.72 4.188 4.408a47.732 47.732 0 0 0-6.135-1.885 12.784 12.784 0 0 0-1.22-2.59c.697-.127 1.4-.198 2.101-.203zm1.607.106c.106.014.213.02.32.037.826.126 1.645.35 2.454.645 2.794 1.477 4.86 3.482 6.089 5.813.13.247.246.495.358.749-.081-.048-.158-.098-.24-.146a36.609 36.609 0 0 0-4.45-2.178c-1.461-1.892-2.981-3.533-4.531-4.92zm-17.626.173c1.055.267 2.129.566 3.226.903a80.32 80.32 0 0 0-2.653-.079 15.837 15.837 0 0 0-.573-.824zm13.417.027c.467.727.863 1.516 1.176 2.363-.352-.08-.704-.159-1.064-.233-.702-.53-1.4-1.034-2.096-1.509.654-.264 1.317-.47 1.984-.62zm-21.181.764c-.062.112-.122.228-.182.342-.347.03-.698.054-1.04.088.41-.15.817-.292 1.222-.43zm18.667.09c.503.34 1.01.693 1.518 1.06a61.63 61.63 0 0 0-2.715-.444 13.85 13.85 0 0 1 1.197-.615zm-12.32.422c.584-.005 1.154 0 1.727.006 1.052 1.695 1.881 3.73 2.41 6.113.031.148.054.304.088.455-2.743 4.472-4.702 10.7-5.298 18.767-1.436-7.965-3.988-13.964-7.107-18.137.016-.159.023-.323.046-.479.317-2.463.98-4.608 1.906-6.435a83.84 83.84 0 0 1 3.753-.233 89.02 89.02 0 0 1 2.473-.057zm2.292.009c1.451.025 2.855.092 4.218.19.81.274 1.632.57 2.463.882-1.584 1.252-3.063 2.875-4.375 4.887-.513-2.29-1.302-4.277-2.306-5.96zm-9.076.327c-.882 1.814-1.514 3.917-1.824 6.298-1.455-1.839-3.027-3.289-4.662-4.368a77.654 77.654 0 0 1 3.883-1.66c.849-.105 1.72-.191 2.603-.27zm15.238.033c.433.043.861.089 1.284.14-.104.073-.21.15-.314.227-.324-.123-.649-.25-.97-.367zm-29.327.01c.286-.006.576.004.863.02-.32.686-.583 1.408-.788 2.163a47.84 47.84 0 0 0-4.468 1.667 35.352 35.352 0 0 1 2.566-3.109c.21-.225.423-.436.636-.65.396-.049.791-.085 1.19-.092zm1.375.069c.86.088 1.722.267 2.58.551-.28.225-.56.45-.841.685-.853.22-1.685.454-2.49.703.2-.677.452-1.324.75-1.94zm-3.363.14c-.061.067-.13.13-.193.2a36.696 36.696 0 0 0-3.113 3.85c-2.17 1.004-4.106 2.125-5.804 3.329.039-.102.07-.206.106-.306a12.82 12.82 0 0 1 1.17-2.245c2.062-2.398 4.477-3.967 7.025-4.647.267-.072.539-.13.81-.182zm33.327.011c1.486.194 2.913.43 4.28.71.578.436 1.157.897 1.739 1.371.095.401.179.809.24 1.23a87.37 87.37 0 0 0-3.551-1.65 84.916 84.916 0 0 0-3.223-1.321c.17-.12.343-.228.515-.34zm-21.81.282c-.794.338-1.598.701-2.41 1.078-.291-.178-.584-.342-.879-.496 1.063-.217 2.16-.41 3.29-.582zm-5.033.312c.082.032.165.057.248.09-.179.042-.349.086-.524.128l.276-.218zm25.874.09a84.9 84.9 0 0 1 3.483 1.422 87.196 87.196 0 0 1 3.805 1.775c.213 1.984.078 4.176-.48 6.553l-.12.448c-4.412 2.84-8.882 7.605-12.92 14.617 2.164-7.804 2.473-14.319 1.472-19.434.084-.135.166-.277.252-.409 1.354-2.082 2.88-3.727 4.508-4.971zm16.155.037c1.992 1.51 3.815 3.607 5.342 6.274a29.217 29.217 0 0 0-2.043-1.405 11.995 11.995 0 0 0-.617-1.397c-.667-1.264-1.57-2.428-2.682-3.472zm-9.806.227c.117.027.233.052.349.08.023.086.061.17.085.257-.146-.116-.288-.223-.434-.337zm-31.222.073c.372.176.743.367 1.11.582a87.999 87.999 0 0 0-3.503 1.748 85.17 85.17 0 0 0-3.041 1.696c.008-.208.038-.41.054-.615a60.636 60.636 0 0 1 3.223-2.905c.703-.18 1.422-.347 2.157-.506zm32.116.13a46.232 46.232 0 0 1 6.535 2.097 46.337 46.337 0 0 1 2.953 4.362c-.561 0-1.13.03-1.708.097a69.523 69.523 0 0 0-3.215-1.97 67.826 67.826 0 0 0-4.398-3.937c-.054-.218-.105-.437-.167-.649zm-35.362.67a61.012 61.012 0 0 0-2.04 1.842c.07-.45.157-.89.264-1.318.578-.182 1.171-.357 1.776-.524zm4.84.088c1.685 1.07 3.316 2.545 4.826 4.462.093.119.183.248.276.37-.532 5.22.404 11.683 3.368 19.212-4.75-6.553-9.65-10.853-14.271-13.26-.054-.15-.114-.304-.164-.454-.783-2.357-1.12-4.577-1.078-6.625a83.565 83.565 0 0 1 3.28-1.836 86.683 86.683 0 0 1 3.763-1.87zm-7.15.606a14.79 14.79 0 0 0-.28 1.687 68.82 68.82 0 0 0-2.64 2.7 68.015 68.015 0 0 0-4.823 3.414c-.22.005-.445.005-.663.018a46.23 46.23 0 0 1 3.496-5.908 46.234 46.234 0 0 1 4.91-1.911zm38.005.051c.834.698 1.671 1.43 2.511 2.209a78.663 78.663 0 0 0-2.354-1.218 18.774 18.774 0 0 0-.157-.99zm7.101 1.064a35.554 35.554 0 0 1 3.608 1.811c.267.155.519.316.775.476.233.644.41 1.307.525 1.987-.74-.16-1.502-.253-2.284-.285a47.765 47.765 0 0 0-2.624-3.99zm-6.88.5a77.172 77.172 0 0 1 3.711 1.996c.613.6 1.226 1.225 1.843 1.869-1.97.441-4.007 1.259-6.063 2.502.531-2.284.684-4.417.51-6.368zm-44.002.7a47.813 47.813 0 0 0-3.197 5.558c-.975.104-1.908.312-2.796.615.046-.971.198-1.923.467-2.847.102-.076.196-.153.3-.228 1.535-1.11 3.279-2.15 5.226-3.099zm5.428.111c0 .128-.015.259-.015.388-.3.177-.604.355-.897.533.305-.313.61-.62.915-.92zm-.023.958c-.008 2.018.336 4.187 1.091 6.467-2.109-1.025-4.155-1.65-6.095-1.914a76.08 76.08 0 0 1 2.78-3.181 76.89 76.89 0 0 1 2.224-1.372zm50.507.424a27.25 27.25 0 0 1 2.373 1.745c.14.277.281.557.417.845a12.587 12.587 0 0 0-2.402-.885 12.016 12.016 0 0 0-.388-1.705zm-24.838.354c.94 5.392.436 12.36-2.173 20.76a77.178 77.178 0 0 0-2.305 4.694 79.602 79.602 0 0 0-.6-5.2c.37-8.779 2.295-15.502 5.078-20.254zm18.322.445c.372.228.739.455 1.099.685-.127.02-.255.049-.381.073-.24-.253-.479-.511-.718-.758zm-55.085.003a13.58 13.58 0 0 0-.258.746c-.117.088-.232.177-.348.266.198-.347.399-.685.606-1.012zm24.15.194c3.187 4.45 5.756 10.946 7.051 19.643a79.034 79.034 0 0 0-.046 5.232 80.09 80.09 0 0 0-2.79-4.414c-3.48-8.075-4.662-14.97-4.217-20.46zm34.106.764c.222-.006.441.005.661.009.306.523.608 1.06.905 1.611a61.039 61.039 0 0 0-2.25-1.575c.23-.017.457-.04.684-.045zm1.236.03c.705.045 1.39.146 2.057.3.106.86.123 1.74.039 2.642-.282-.225-.563-.45-.854-.673a55.64 55.64 0 0 0-1.24-2.269zm-2.69.094a60.755 60.755 0 0 1 3.548 2.496c.33.643.654 1.308.972 1.988-.09.402-.19.807-.318 1.214a87.355 87.355 0 0 0-2.484-3.026 84.336 84.336 0 0 0-2.33-2.587c.206-.035.408-.059.612-.085zm-49.574.158a80.423 80.423 0 0 0-1.711 2.023 15.447 15.447 0 0 0-1.003-.066 66.235 66.235 0 0 1 2.714-1.957zm48.405.039c.84.892 1.68 1.813 2.52 2.79a87.156 87.156 0 0 1 2.66 3.25c-.67 1.88-1.745 3.796-3.278 5.696-.095.118-.201.237-.3.354-5.208.644-11.3 2.996-17.982 7.562 5.335-6.092 8.44-11.826 9.757-16.868.135-.085.27-.18.403-.26 2.124-1.289 4.214-2.11 6.22-2.524zm6.413.133c.937.258 1.831.624 2.673 1.09.046.116.104.226.154.343.742 1.746 1.369 3.679 1.86 5.79a47.602 47.602 0 0 0-4.708-4.357c.116-.975.12-1.933.023-2.866zm-62.503.094c-.196.83-.303 1.68-.327 2.542-.548.213-1.073.469-1.579.757.356-.956.751-1.855 1.176-2.702.238-.2.48-.4.73-.597zm65.363.242c.3.273.588.548.864.827a12.769 12.769 0 0 0-.679-.424l-.185-.403zm-67.011 1.16a29.086 29.086 0 0 0-.915 2.306c-.423.28-.836.576-1.224.909-1.086.933-2.023 2.077-2.793 3.396 1.028-2.28 2.668-4.527 4.932-6.61zm67.531.025c.092.059.186.11.277.173a12.83 12.83 0 0 1 1.93 1.641c1.878 2.544 2.87 5.248 2.965 7.883.008.278 0 .554 0 .83-.054-.079-.098-.157-.152-.236a36.478 36.478 0 0 0-3.063-3.89c-.496-2.341-1.157-4.478-1.953-6.401zm-61.315.72c.347.004.698.02 1.054.05a88.043 88.043 0 0 0-2.399 3.092 85.335 85.335 0 0 0-2.006 2.848c-.079-.192-.144-.384-.215-.576a61.207 61.207 0 0 1 1.643-4.017c.554-.466 1.13-.928 1.723-1.39.07 0 .133-.007.2-.006zm-1.026.031c-.145.115-.277.23-.419.345.046-.106.103-.212.155-.318.089-.008.174-.021.264-.027zm-.83.085c-.157.325-.315.65-.467.984a55.482 55.482 0 0 0-1.936 1.71 12.7 12.7 0 0 1-.16-2.073 12.152 12.152 0 0 1 2.562-.621zm3.477 0c1.982.234 4.09.855 6.283 1.927.136.066.275.145.412.215 1.786 4.933 5.434 10.348 11.37 15.844-7.127-3.845-13.408-5.594-18.616-5.756-.113-.112-.234-.221-.343-.333-1.728-1.783-2.993-3.64-3.844-5.502a83.973 83.973 0 0 1 2.16-3.08 85.99 85.99 0 0 1 2.578-3.315zm55.512.509l.272.218a3.002 3.002 0 0 1-.031.26c-.079-.163-.163-.316-.242-.478zm-12.839.173c-1.492 5.264-4.97 11.323-10.96 17.758a77.099 77.099 0 0 0-4.118 3.23 80.482 80.482 0 0 0 1.712-4.936c4.143-7.753 8.797-12.977 13.366-16.052zm-49.198.118c.008.757.084 1.522.227 2.293a47.737 47.737 0 0 0-3.302 3.441c.262-1.38.581-2.691.963-3.917.093-.296.192-.58.29-.866a11.456 11.456 0 0 1 1.822-.951zm62.748.275a46.19 46.19 0 0 1 4.978 4.72c.34 1.635.6 3.374.77 5.214a14.805 14.805 0 0 0-1.582-.651 69.516 69.516 0 0 0-2.042-3.172 68.326 68.326 0 0 0-2.254-5.462c.046-.217.096-.433.13-.649zm-60.622.943a61.735 61.735 0 0 0-1.04 2.544 14.03 14.03 0 0 1-.332-1.3c.442-.415.9-.831 1.372-1.244zm-4.614.19c-.023.09-.061.174-.087.264a36.585 36.585 0 0 0-1.13 4.817c-1.522 1.848-2.783 3.697-3.79 5.52-.016-.108-.024-.214-.04-.322-.06-.835-.03-1.685.083-2.541.819-3.05 2.315-5.506 4.314-7.223.21-.18.428-.35.648-.515zm16.344.264c4.801 2.627 9.933 7.368 14.875 14.644a76.716 76.716 0 0 0 2.238 4.735 79.477 79.477 0 0 0-4.438-2.775C38.677 41.19 34.622 35.49 32.639 30.35zm48.577.018c.448.99.884 2.013 1.303 3.078a82.01 82.01 0 0 0-1.59-2.115c.108-.322.202-.643.287-.963zm-62.085 1.157c.125.548.28 1.096.476 1.645a68.99 68.99 0 0 0-1.206 3.572 67.843 67.843 0 0 0-2.863 5.168c-.198.1-.4.199-.59.306.038-2.445.237-4.725.584-6.837a46.261 46.261 0 0 1 3.599-3.854zm61.61.346a78.15 78.15 0 0 1 2.475 3.414c.291.805.576 1.635.851 2.48-1.965-.456-4.157-.603-6.546-.375 1.469-1.828 2.531-3.685 3.22-5.52zm9.009.563c1.139 2.224 1.87 4.902 2.087 7.968a28.637 28.637 0 0 0-1.23-2.157c.047-.505.07-1.014.047-1.524-.047-1.427-.361-2.866-.91-4.287zm-69.882 1.43c.046.12.102.238.154.357-.193.29-.393.579-.579.867a64.6 64.6 0 0 1 .425-1.224zm67.286.545a35.595 35.595 0 0 1 2.463 3.196c.174.256.331.512.494.767-.07.68-.196 1.355-.388 2.017a13.335 13.335 0 0 0-1.936-1.25 48.045 48.045 0 0 0-.633-4.73zm-66.896.327c.868 1.821 2.121 3.625 3.79 5.35-2.347-.008-4.462.322-6.326.927.348-1.407.725-2.759 1.124-4.065a76 76 0 0 1 1.412-2.212zm-5.326 1.379a47.673 47.673 0 0 0-.469 6.398 12.78 12.78 0 0 0-2.254 1.766 12.106 12.106 0 0 1-.812-2.769c.062-.111.11-.221.17-.333a35.247 35.247 0 0 1 3.365-5.062zm69.369.8c.235.364.462.729.687 1.09-.123-.036-.248-.07-.373-.103-.105-.33-.206-.664-.314-.987zm-4.179.854c1.473.026 2.842.212 4.11.53.371 1.169.728 2.363 1.062 3.608.373 1.392.695 2.75.985 4.084-1.42 1.404-3.218 2.665-5.423 3.71-.137.066-.285.125-.424.189-4.972-1.68-11.482-2.206-19.482-.99 7.448-3.174 12.735-6.994 16.11-10.964.157-.019.32-.046.476-.061a22.65 22.65 0 0 1 2.586-.106zm-3.777.254c-3.629 4.096-9.391 8.048-17.583 11.246a77.019 77.019 0 0 0-5.113 1.127 80.13 80.13 0 0 0 3.692-3.711c7.096-5.187 13.553-7.873 19.004-8.662zm8.44.418c.2.058.391.124.585.188a60.947 60.947 0 0 1 2.114 3.787c.016.725.023 1.466.008 2.218a14.43 14.43 0 0 1-.815.954 88.257 88.257 0 0 0-.92-3.805 85.94 85.94 0 0 0-.979-3.342zm-66.939.197a80.635 80.635 0 0 0-.663 2.563c-.32.117-.63.24-.933.373a66.245 66.245 0 0 1 1.596-2.936zm68.254.258c.422.166.833.348 1.227.548.046.605.088 1.221.119 1.848a62.582 62.582 0 0 0-1.346-2.396zm4.414.121c.526.875.983 1.742 1.38 2.602.016.312.016.624.016.943a12.65 12.65 0 0 0-1.785-1.842c.175-.56.301-1.128.391-1.703zm-2.676.697c.616.347 1.187.738 1.721 1.166a12.157 12.157 0 0 1-1.112 2.39 61.892 61.892 0 0 0-.478-.972c-.023-.88-.07-1.743-.13-2.584zm-63.745.857c.15 0 .307.012.46.016 3.751 3.67 9.39 6.968 17.126 9.345-8.088-.372-14.51.777-19.273 2.89-.15-.051-.304-.1-.452-.154-2.332-.857-4.277-1.98-5.853-3.29.174-1.212.373-2.445.612-3.711.268-1.417.564-2.778.882-4.105 1.888-.65 4.057-1.005 6.498-.99zm1.179.04c5.467.283 12.151 2.328 19.764 6.743a76.892 76.892 0 0 0 4.053 3.287 79.913 79.913 0 0 0-5.199-.573c-8.477-2.313-14.604-5.688-18.618-9.458zm-14.475.03c.023.266.046.533.091.796-.07.13-.135.26-.2.391.03-.402.061-.8.109-1.187zm79.16.566c.731.64 1.377 1.356 1.932 2.142 0 .125 0 .246-.008.372-.088 1.894-.364 3.907-.836 6.02a47.648 47.648 0 0 0-2.354-5.965c.527-.828.952-1.687 1.267-2.569zm-72.901.542a88.842 88.842 0 0 0-.821 3.83 85.195 85.195 0 0 0-.57 3.435c-.155-.138-.299-.282-.445-.424a59.882 59.882 0 0 1-.26-4.335c.297-.662.617-1.329.95-2.003.37-.18.749-.35 1.146-.503zm-6.017.46c.184.834.454 1.645.806 2.433-.401.43-.763.887-1.094 1.367a27.25 27.25 0 0 1-.111-2.942c.128-.285.258-.57.4-.857zm4.132.425c-.08.165-.146.327-.224.49v-.35c.078-.045.147-.096.224-.14zm77.215.118c.15.373.288.743.415 1.112a12.43 12.43 0 0 0-.425-.673c0-.147 0-.293.008-.439zm-77.926.321c0 .36 0 .72.008 1.088-.36.802-.695 1.595-1.003 2.378a12.742 12.742 0 0 1-1.046-1.794 12.17 12.17 0 0 1 2.04-1.672zm73.527.358c.054.107.104.214.154.32-.046.076-.093.151-.146.225 0-.185 0-.362-.007-.545zm4.356.618c.054.09.117.177.17.27a12.82 12.82 0 0 1 1.03 2.32c.587 3.104.305 5.968-.752 8.382-.11.253-.235.5-.363.743a3.28 3.28 0 0 0-.03-.273 36.683 36.683 0 0 0-1.073-4.832c.568-2.323.903-4.533 1.02-6.61zm-82.18.142c.024.802.078 1.627.174 2.472-.261.436-.505.883-.71 1.351-.574 1.313-.917 2.75-1.039 4.275-.061-2.501.44-5.237 1.576-8.098zm78.218.064a46.377 46.377 0 0 1 2.438 6.413A45.995 45.995 0 0 1 89.25 55.7c-.35-.438-.726-.862-1.139-1.272a68.283 68.283 0 0 0-.467-3.748c.207-2.05.311-4.01.337-5.895.135-.176.274-.35.4-.53zm-76.318.86c.336.678.737 1.333 1.2 1.963a47.702 47.702 0 0 0-1.481 4.533 35.686 35.686 0 0 1-.834-3.942c-.046-.305-.077-.603-.112-.903.36-.583.766-1.136 1.227-1.65zm2.445.176c.038.896.09 1.808.17 2.742-.31-.334-.599-.676-.867-1.027.219-.566.452-1.138.697-1.715zm72.98.106a64.27 64.27 0 0 1-.164 3.345 80.738 80.738 0 0 0-.515-2.603c.236-.243.462-.49.678-.742zm-1.085 1.145c.298 1.42.544 2.803.751 4.154-.086.85-.193 1.719-.312 2.599-1.572-1.264-3.483-2.344-5.735-3.175 2.118-1.01 3.88-2.224 5.296-3.578zm-35.205.753c.095.91.174 1.843.242 2.796-.03.062-.054.125-.082.188-.03-.06-.069-.12-.1-.18a69.67 69.67 0 0 1-.062-2.804zm-40.762.166c.008.094.015.185.03.279a36.68 36.68 0 0 0 1.074 4.832c-.569 2.324-.904 4.535-1.021 6.613-.054-.092-.116-.18-.17-.272a12.764 12.764 0 0 1-1.03-2.321c-.586-3.104-.305-5.968.752-8.382a12.2 12.2 0 0 1 .363-.749zm3.179.067c.35.438.726.863 1.139 1.272.118 1.22.27 2.465.466 3.747a67.463 67.463 0 0 0-.336 5.896c-.136.177-.277.352-.403.533a46.283 46.283 0 0 1-2.436-6.417c.402-1.62.923-3.3 1.57-5.031zm39.475.103c-.307.857-.64 1.73-.99 2.614-.046.045-.102.09-.154.136a1.84 1.84 0 0 0-.015-.206c.38-.872.765-1.722 1.158-2.544zm-3.744.196c.48.778.959 1.584 1.433 2.412 0 .069 0 .137.008.206-.054-.04-.113-.076-.169-.115a80.236 80.236 0 0 1-1.272-2.503zm19.113.894c4.387-.076 8.163.466 11.318 1.46-5.046 2.116-11.952 3.173-20.721 2.5a77.112 77.112 0 0 0-5.102-1.203 80.29 80.29 0 0 0 4.939-1.739c3.454-.637 6.647-.968 9.566-1.018zm-13.817.036a84.91 84.91 0 0 1-2.012 1.915c-.062.018-.131.034-.196.052.023-.063.046-.128.077-.191a83.973 83.973 0 0 1 2.133-1.775zm-6.753.336a85.447 85.447 0 0 1 2.357 1.564c.031.06.062.12.097.181l-.2-.03a83.378 83.378 0 0 1-2.254-1.714zm-32.596.225c.095.086.196.167.294.251-.047.346-.102.694-.146 1.036a74.083 74.083 0 0 1-.148-1.287zm.73.615c1.573 1.265 3.481 2.346 5.735 3.177-2.117 1.01-3.88 2.222-5.296 3.575a77.431 77.431 0 0 1-.751-4.147c.086-.853.192-1.723.311-2.605zm22.012.412a65.891 65.891 0 0 1 5.774.206c1.615.44 3.307.844 5.092 1.202a80.21 80.21 0 0 0-4.929 1.74c-8.646 1.595-15.63 1.212-20.884-.443 3.882-1.628 8.861-2.635 14.947-2.705zm42.42.063c.152.052.308.1.456.154 2.33.857 4.275 1.978 5.849 3.287a84.306 84.306 0 0 1-.609 3.714 87.602 87.602 0 0 1-.881 4.105c-1.889.65-4.057 1.005-6.499.99-.15 0-.307-.011-.46-.014-3.75-3.671-9.39-6.969-17.126-9.346 8.089.373 14.507-.777 19.27-2.89zm-24.874.022c-.862.293-1.75.577-2.66.854l-.203-.036c.046-.046.101-.093.152-.14a82.141 82.141 0 0 1 2.711-.678zm-8.4.454c.903.11 1.83.24 2.768.385l.164.12-.2.059a82.867 82.867 0 0 1-2.733-.564zm47.095.058c.062 2.5-.44 5.237-1.576 8.098a29.926 29.926 0 0 0-.172-2.475 12 12 0 0 0 .71-1.348c.573-1.313.917-2.75 1.038-4.275zm-42.851.557c.007 0 .023.01.03.01h.024c.007.01.015.012.023.02l.008.01c0 .01.015.02.015.03 0 .01 0 .011.008.017v.05c0 .01-.008.021-.008.032v.015c-.008.01-.015.014-.023.022 0 .01-.016.01-.016.015-.007 0-.015.01-.023.01 0 0-.007.01-.015.01-.016 0-.023-.01-.031-.01h-.015c-.008-.01-.024-.014-.031-.022 0 0-.008-.01-.016-.012 0-.01-.007-.015-.015-.024 0-.01 0-.012-.008-.018v-.033-.015c0-.01.008-.022.016-.033 0-.01 0-.012.007-.019 0-.01.016-.015.023-.02 0 0 .008-.01.008-.013.016 0 .023-.01.031-.01 0 0 .008-.01.015-.01zm39.658.119c.363 1.356.646 2.675.833 3.944.046.306.077.605.112.906-.36.582-.765 1.134-1.227 1.648a13.409 13.409 0 0 0-1.202-1.966 48.167 48.167 0 0 0 1.484-4.532zm-38.138.163c.945.179 1.869.368 2.766.57a85.987 85.987 0 0 1-2.796-.388c-.054-.041-.11-.081-.166-.121l.196-.061zm-3.002.167l.203.036c-.046.046-.1.093-.151.139-.92.247-1.828.476-2.717.682.862-.294 1.754-.58 2.665-.858zm2.578.445l.203.03c.767.566 1.512 1.13 2.227 1.697a86.257 86.257 0 0 1-2.332-1.548c-.031-.06-.062-.12-.098-.18zm-2.087.112c-.023.062-.046.126-.077.188-.72.62-1.436 1.218-2.145 1.787a85.195 85.195 0 0 1 2.02-1.92c.07-.018.134-.036.2-.055zm3.339.085a80.02 80.02 0 0 0 5.192.57c8.482 2.313 14.609 5.69 18.625 9.46-5.465-.283-12.146-2.328-19.755-6.74a77.202 77.202 0 0 0-4.062-3.29zm33.65.036c.055.432.104.86.149 1.285-.095-.086-.196-.167-.294-.252.046-.345.102-.692.146-1.033zm-35.347.16c.054.039.111.078.167.116.445.842.87 1.676 1.27 2.496a86.166 86.166 0 0 1-1.428-2.405c0-.07 0-.137-.008-.206zm-2.86.05a80.199 80.199 0 0 0-3.692 3.71c-7.097 5.188-13.556 7.874-19.007 8.662 3.629-4.096 9.392-8.047 17.585-11.245a77.273 77.273 0 0 0 5.114-1.127zm1.703.015c0 .069 0 .137.008.206a83.407 83.407 0 0 1-1.158 2.544c.308-.858.64-1.732.991-2.617.046-.045.103-.09.154-.133zm.587.103c.031.059.07.12.1.178a87.6 87.6 0 0 1 .062 2.806 87.978 87.978 0 0 1-.242-2.796c.023-.062.054-.126.082-.188zm-29.073.388c4.972 1.679 11.482 2.205 19.482.99-7.45 3.174-12.736 6.995-16.11 10.967-.158.019-.32.042-.476.058-2.472.24-4.71.07-6.698-.427a84.634 84.634 0 0 1-1.06-3.608 88.502 88.502 0 0 1-.985-4.081c1.418-1.404 3.217-2.665 5.423-3.711.137-.065.284-.125.424-.188zm-10.612.142a47.85 47.85 0 0 0 2.354 5.97c-.527.829-.951 1.688-1.267 2.57a12.139 12.139 0 0 1-1.932-2.139c0-.126 0-.248.008-.376.089-1.895.363-3.91.836-6.025zm41.294.022a80.063 80.063 0 0 0 4.435 2.772c6.638 5.765 10.696 11.464 12.678 16.604-4.8-2.626-9.933-7.366-14.874-14.641a76.757 76.757 0 0 0-2.239-4.735zm-3.15.173a80.403 80.403 0 0 0-1.718 4.944c-4.142 7.751-8.795 12.974-13.363 16.05 1.492-5.265 4.97-11.324 10.96-17.76a76.65 76.65 0 0 0 4.12-3.234zm2.165.375a80.572 80.572 0 0 0 2.794 4.423c3.478 8.072 4.658 14.965 4.213 20.455-3.186-4.45-5.753-10.946-7.05-19.646.07-1.673.092-3.412.047-5.232zm-1.126.063c.149 1.816.354 3.541.6 5.199-.37 8.78-2.295 15.503-5.079 20.255-.94-5.392-.435-12.36 2.174-20.761a77.162 77.162 0 0 0 2.305-4.693zm36.196.1c.155.139.298.282.444.424.142 1.493.229 2.937.261 4.332-.298.662-.617 1.331-.951 2.006-.37.18-.749.35-1.146.503.293-1.242.573-2.511.822-3.83.221-1.17.404-2.31.57-3.435zm-71.659.273c.154.853.327 1.723.515 2.602-.238.244-.463.49-.679.742.03-1.087.08-2.201.164-3.344zm72.646.709c.309.333.599.676.866 1.027a54.183 54.183 0 0 1-.696 1.711 65.281 65.281 0 0 0-.17-2.738zm1.209 1.49c.404.58.752 1.18 1.048 1.797a12.137 12.137 0 0 1-2.04 1.672c0-.36 0-.72-.007-1.088a56.22 56.22 0 0 0 1-2.38zm2.714.533c.094 1.015.13 1.994.115 2.939-.128.285-.258.57-.4.857a12.594 12.594 0 0 0-.809-2.432c.4-.43.764-.885 1.094-1.364zm-32.618.146c7.124 3.844 13.405 5.593 18.613 5.756.113.111.234.22.342.333 1.729 1.783 2.995 3.638 3.845 5.501a83.745 83.745 0 0 1-2.157 3.081 86.611 86.611 0 0 1-2.581 3.315c-1.982-.234-4.088-.856-6.28-1.927-.137-.066-.275-.145-.413-.215-1.786-4.933-5.433-10.348-11.369-15.844zm-43.311.276c.274 1.245.572 2.509.92 3.805.309 1.149.64 2.253.978 3.338-.198-.057-.39-.12-.584-.185a60.596 60.596 0 0 1-2.114-3.79c-.016-.724-.023-1.463-.016-2.214.255-.323.523-.644.815-.954zm27.855.548c-5.335 6.091-8.44 11.826-9.758 16.868-.135.085-.269.179-.403.26-2.122 1.288-4.211 2.11-6.216 2.524a82.834 82.834 0 0 1-2.524-2.79 86.34 86.34 0 0 1-2.66-3.254c.67-1.88 1.746-3.796 3.278-5.695.095-.117.2-.235.298-.352 5.208-.643 11.303-2.994 17.985-7.561zm46.62.76c.382.893.652 1.818.812 2.766-.062.112-.11.224-.17.336-.902 1.668-2.023 3.363-3.365 5.063a47.8 47.8 0 0 0 .469-6.399 12.8 12.8 0 0 0 2.254-1.766zm-75.788.303c0 .186.008.364.008.549-.054-.108-.104-.215-.155-.322.046-.076.093-.152.145-.227zm-4.808.106c.139.23.276.459.428.679 0 .148-.007.296-.007.442-.151-.376-.292-.75-.418-1.12zm4.358.6c.155.324.312.646.478.972.023.881.07 1.744.13 2.585a12.744 12.744 0 0 1-1.724-1.167c.277-.818.648-1.617 1.116-2.39zm73.5.148v.352c-.078.045-.145.093-.222.136.079-.164.147-.324.225-.488zm-31.718.185c4.75 6.555 9.649 10.857 14.27 13.263.054.15.115.3.165.448.783 2.358 1.117 4.58 1.075 6.629a84.113 84.113 0 0 1-3.28 1.836 86.315 86.315 0 0 1-3.764 1.869c-1.684-1.07-3.312-2.546-4.822-4.462-.094-.119-.184-.248-.276-.37.532-5.22-.405-11.683-3.368-19.213zm-45.243.376c.528.67 1.125 1.285 1.786 1.842-.175.56-.302 1.128-.392 1.702a27.404 27.404 0 0 1-1.381-2.599c0-.312-.016-.626-.008-.945zm36.66.088c-2.162 7.8-2.467 14.312-1.466 19.425-.084.134-.167.277-.252.409-1.354 2.082-2.88 3.727-4.508 4.97a84.523 84.523 0 0 1-3.483-1.42 86.74 86.74 0 0 1-3.805-1.775c-.214-1.984-.079-4.177.478-6.553.038-.147.08-.3.119-.448 4.41-2.839 8.88-7.6 12.917-14.608zm40.297.26c-.038 2.446-.237 4.726-.585 6.838a46.175 46.175 0 0 1-3.595 3.85 14.888 14.888 0 0 0-.476-1.642c.421-1.149.827-2.336 1.206-3.574a68.38 68.38 0 0 0 2.863-5.169c.197-.099.398-.196.587-.303zm4.263.385c-.023.403-.062.8-.11 1.188-.022-.266-.045-.534-.09-.797.07-.13.135-.26.2-.39zm-40.216.103c1.436 7.965 3.988 13.965 7.107 18.138-.016.158-.023.322-.046.478-.317 2.463-.979 4.608-1.905 6.435-1.222.1-2.466.185-3.754.233-1.44.054-2.837.066-4.202.052-1.053-1.695-1.879-3.731-2.408-6.113-.03-.148-.062-.305-.089-.455 2.743-4.472 4.702-10.7 5.3-18.767zm34.653.152a64.68 64.68 0 0 1-1.596 2.935c.232-.833.452-1.691.664-2.563.32-.116.63-.24.932-.372zm-71.195.282c.423.792.866 1.588 1.343 2.396-.423-.166-.83-.349-1.224-.549a62.423 62.423 0 0 1-.119-1.847zm69.724.278a77.889 77.889 0 0 1-1.125 4.066 75.73 75.73 0 0 1-1.412 2.208c-.867-1.82-2.122-3.622-3.79-5.347 2.348.01 4.463-.321 6.327-.927zm6.434.327c.007.108.03.214.038.321.062.835.023 1.686-.081 2.542-.819 3.05-2.315 5.506-4.314 7.222-.21.18-.428.351-.648.515.023-.089.061-.173.087-.263a36.704 36.704 0 0 0 1.13-4.817c1.522-1.848 2.783-3.697 3.79-5.52zm-80.55.285c.368.714.776 1.433 1.23 2.154-.046.506-.069 1.015-.046 1.527.054 1.426.361 2.866.91 4.287-1.14-2.224-1.87-4.903-2.087-7.968zm2.114.012c.598.464 1.243.884 1.934 1.251.142 1.653.349 3.233.63 4.726a35.515 35.515 0 0 1-2.46-3.193c-.172-.255-.33-.51-.49-.763.069-.681.194-1.358.386-2.02zm2.446 1.503c.505.243 1.028.46 1.578.651a69.63 69.63 0 0 0 2.045 3.169 68.086 68.086 0 0 0 2.253 5.465c-.046.217-.095.433-.13.648a46.17 46.17 0 0 1-4.977-4.717 46.154 46.154 0 0 1-.77-5.216zm2.29.884c.122.036.248.066.373.1.104.33.206.664.314.988a61.735 61.735 0 0 1-.687-1.088zm.924.237c1.964.456 4.155.603 6.543.375-1.469 1.828-2.531 3.683-3.22 5.517a76.122 76.122 0 0 1-2.48-3.42c-.292-.803-.57-1.63-.843-2.472zm-6.108.197c.054.079.098.157.151.236a36.672 36.672 0 0 0 3.064 3.89c.495 2.34 1.152 4.476 1.948 6.398-.09-.058-.182-.11-.27-.17a12.814 12.814 0 0 1-1.927-1.639c-1.88-2.545-2.872-5.249-2.968-7.885-.008-.278 0-.554 0-.83zm70.729 2.48c-.14.415-.283.822-.427 1.225-.046-.12-.1-.239-.153-.358.194-.29.393-.578.58-.866zm3.732.68c-.262 1.379-.58 2.689-.96 3.913-.092.295-.193.578-.292.864-.576.37-1.181.691-1.82.954a13.256 13.256 0 0 0-.227-2.293 47.804 47.804 0 0 0 3.299-3.439zm-4.626.657c.08.191.145.384.216.575a61.21 61.21 0 0 1-1.643 4.017 59.32 59.32 0 0 1-1.723 1.39c-.412 0-.83-.01-1.255-.041a87.03 87.03 0 0 0 2.4-3.093 85.358 85.358 0 0 0 2.005-2.848zm7.789.142c-1.03 2.274-2.666 4.514-4.923 6.592.329-.734.633-1.501.914-2.305.424-.28.837-.576 1.225-.91 1.08-.928 2.016-2.065 2.784-3.377zm-69.974.16a82.232 82.232 0 0 0 1.593 2.118c-.108.322-.203.643-.287.964-.45-.991-.886-2.015-1.306-3.081zm-3.787.71a47.704 47.704 0 0 0 4.708 4.353c-.116.975-.12 1.933-.023 2.866a12.108 12.108 0 0 1-2.672-1.091c-.046-.116-.105-.225-.154-.342-.742-1.745-1.37-3.677-1.861-5.787zm66.44.3c.132.433.243.867.331 1.299-.443.416-.9.832-1.371 1.245.356-.824.705-1.667 1.04-2.545zm-60.712 1.55a88.41 88.41 0 0 0 2.485 3.027 85.333 85.333 0 0 0 2.329 2.587c-.205.035-.408.059-.612.085a60.764 60.764 0 0 1-3.547-2.493 58.93 58.93 0 0 1-.972-1.99c.09-.403.19-.808.317-1.215zm61.15.319c.112.697.165 1.387.163 2.072-.812.293-1.667.504-2.562.62.156-.325.314-.65.466-.984a54.669 54.669 0 0 0 1.933-1.708zm-12.33 1.223c2.107 1.025 4.155 1.648 6.095 1.912a76.092 76.092 0 0 1-2.78 3.18c-.719.463-1.463.919-2.224 1.373.007-2.018-.336-4.185-1.091-6.465zm14.548.433a27.173 27.173 0 0 1-1.176 2.703c-.239.2-.48.4-.73.597.195-.83.303-1.68.326-2.542a12.018 12.018 0 0 0 1.58-.758zm-63.849.05c.08.165.165.32.245.484l-.275-.221c.008-.088.015-.175.03-.264zm58.82.727c-.047.106-.103.212-.155.318-.089.01-.174.022-.264.027.144-.115.277-.231.418-.346zm-58.92.103c.283.224.564.449.857.672.404.781.816 1.537 1.236 2.266a12.691 12.691 0 0 1-2.06-.303 11.923 11.923 0 0 1-.03-2.635zm61.885.048a12.28 12.28 0 0 1-.466 2.847c-.102.076-.196.153-.3.228-1.537 1.111-3.281 2.15-5.23 3.099a47.57 47.57 0 0 0 3.2-5.56c.976-.104 1.91-.311 2.796-.614zm-49.485.505c-.531 2.286-.685 4.42-.51 6.371a76.849 76.849 0 0 1-3.716-2.005 76.392 76.392 0 0 1-1.837-1.863c1.97-.441 4.008-1.26 6.063-2.503zm43.666.11c.338.034.673.055 1.005.066-.866.658-1.77 1.31-2.716 1.957.57-.651 1.14-1.33 1.71-2.024zm2.456.055a46.057 46.057 0 0 1-3.499 5.907 46.213 46.213 0 0 1-4.907 1.909c.124-.547.218-1.107.282-1.685a68.757 68.757 0 0 0 2.638-2.699 67.996 67.996 0 0 0 4.823-3.414c.223-.01.445-.01.663-.02zm-56.756.63c.722.53 1.466 1.056 2.245 1.575-.454.034-.901.045-1.342.036a54.078 54.078 0 0 1-.903-1.612zm-5.95 0c.223.146.445.29.676.42.062.135.12.269.182.4-.297-.27-.584-.543-.858-.82zm1.375.787c.766.376 1.57.67 2.406.885.087.58.22 1.149.387 1.706a27.29 27.29 0 0 1-2.375-1.745 30.23 30.23 0 0 1-.418-.846zm65 .776c-.197.349-.4.687-.609 1.015.093-.247.182-.494.258-.745l.351-.27zm-62.09.233c.74.16 1.503.254 2.286.285a47.73 47.73 0 0 0 2.617 3.987 35.544 35.544 0 0 1-3.601-1.809c-.268-.155-.52-.316-.776-.476a11.443 11.443 0 0 1-.527-1.987zm5.679.024c.24.253.481.51.72.758a68.307 68.307 0 0 1-1.102-.688c.127-.021.255-.045.382-.07zm-1.118.17a69.259 69.259 0 0 0 3.218 1.972 68.02 68.02 0 0 0 4.398 3.941c.054.217.105.435.167.646a46.222 46.222 0 0 1-6.532-2.097 46.316 46.316 0 0 1-2.956-4.362c.56 0 1.129-.033 1.705-.1zm56.494.342c-.039.102-.07.206-.107.306a12.81 12.81 0 0 1-1.167 2.239c-2.063 2.4-4.48 3.973-7.03 4.653-.269.072-.538.13-.81.182.07-.07.132-.133.197-.203a36.674 36.674 0 0 0 3.112-3.85c2.17-1.005 4.107-2.123 5.805-3.327zm-62.965.373c.642.483 1.322.953 2.042 1.405.178.476.376.944.615 1.397.666 1.263 1.571 2.426 2.68 3.469-1.989-1.51-3.811-3.605-5.337-6.271zm39.601.957c1.456 1.84 3.028 3.292 4.663 4.372a77.226 77.226 0 0 1-3.875 1.654c-.852.105-1.724.196-2.612.275.883-1.815 1.515-3.919 1.824-6.3zm13.587.176c-.305.313-.61.62-.915.92a6.48 6.48 0 0 0 .015-.387c.3-.177.603-.355.897-.533zm-26.793.494c.514 2.289 1.301 4.276 2.306 5.959a77.198 77.198 0 0 1-4.211-.191 77.632 77.632 0 0 1-2.469-.885c1.584-1.252 3.063-2.872 4.374-4.883zm-23.662.2c.08.048.155.098.237.145A36.613 36.613 0 0 0 27.31 83.4c1.462 1.893 2.981 3.533 4.532 4.92-.106-.013-.212-.02-.317-.036a12.815 12.815 0 0 1-2.454-.645c-2.794-1.477-4.86-3.482-6.09-5.814a12.019 12.019 0 0 1-.354-.748zm49.068.124c-.008.208-.03.41-.054.615a60.34 60.34 0 0 1-3.223 2.902 59.43 59.43 0 0 1-2.157.506 14.413 14.413 0 0 1-1.109-.582 87.982 87.982 0 0 0 3.502-1.748 84.589 84.589 0 0 0 3.039-1.693zm-40.386.27c.76.41 1.546.817 2.349 1.217.046.337.094.666.157.99a65.616 65.616 0 0 1-2.506-2.208zm40.24 1.111c-.07.45-.16.89-.267 1.318-.578.182-1.17.36-1.774.527a62.628 62.628 0 0 0 2.041-1.845zm4.602.036a35.47 35.47 0 0 1-2.563 3.105c-.211.226-.423.437-.636.652-.68.082-1.366.11-2.054.07.32-.686.583-1.409.787-2.163a47.804 47.804 0 0 0 4.466-1.664zm-41.988.315a87.98 87.98 0 0 0 3.551 1.651c1.091.476 2.162.91 3.223 1.321-.17.12-.342.228-.512.34a60.777 60.777 0 0 1-4.281-.71 60.046 60.046 0 0 1-1.742-1.372c-.093-.4-.178-.808-.24-1.23zm-5.964.815c1.88.725 3.923 1.36 6.133 1.884.32.929.728 1.794 1.222 2.59-.956.174-1.919.232-2.879.176-.096-.083-.193-.157-.29-.242-1.426-1.25-2.828-2.72-4.186-4.408zm42.935.709a12.868 12.868 0 0 1-.75 1.939 12.106 12.106 0 0 1-2.579-.552c.281-.224.56-.45.842-.684.853-.22 1.682-.455 2.487-.703zm7.534.236c-1.916 1.609-4.368 2.922-7.312 3.817a29.005 29.005 0 0 0 1.826-1.678 12.086 12.086 0 0 0 1.5-.29c1.383-.37 2.72-.995 3.986-1.849zm-14.026.191c.291.178.584.342.878.497-1.065.217-2.163.41-3.296.582.797-.34 1.604-.7 2.418-1.079zm-30.033.082c.143.115.286.218.43.33l-.346-.079c-.023-.085-.061-.165-.084-.251zm32.933.467l-.277.218c-.082-.032-.165-.057-.248-.091.179-.041.347-.085.525-.127zm-1.318.294c.202.093.402.19.605.272a46.256 46.256 0 0 1-5.71 3.805 46.353 46.353 0 0 1-5.253-.412c.349-.438.677-.901.985-1.393a69.418 69.418 0 0 0 3.547-1.291 68.058 68.058 0 0 0 5.826-.981zm-31.346.03c.351.08.703.159 1.063.233a55.83 55.83 0 0 0 2.096 1.505c-.655.266-1.315.474-1.983.624a12.237 12.237 0 0 1-1.176-2.362zm6.582.35c.325.124.653.25.974.367a67.436 67.436 0 0 1-1.285-.139c.105-.073.209-.15.311-.227zm25.906.086c.924.33 1.856.55 2.787.66a12.149 12.149 0 0 1-1.657 2.36c-.125.024-.244.053-.37.076a35.184 35.184 0 0 1-6.056.527 47.79 47.79 0 0 0 5.296-3.623zm-30.313.012a61.46 61.46 0 0 0 2.712.445c-.395.228-.795.432-1.197.615a53.289 53.289 0 0 1-1.515-1.06zm3.475.54c1.216.155 2.465.286 3.76.38a68.013 68.013 0 0 0 5.667 1.64c.143.172.282.348.43.512-2.391.51-4.66.814-6.798.945a46.144 46.144 0 0 1-4.552-2.648c.504-.243 1.002-.52 1.493-.83zm30.134.166c.586.045 1.17.04 1.75 0a27.312 27.312 0 0 1-2.226 1.923c-.303.077-.609.153-.92.222a12.618 12.618 0 0 0 1.396-2.145zm-12.206.015a67.3 67.3 0 0 1-1.22.43c.061-.112.12-.228.18-.342.348-.03.698-.054 1.04-.088zm-1.602.133c-.102.183-.208.357-.316.533-1.423.47-2.813.877-4.165 1.218-.71-.143-1.43-.306-2.16-.482-.258-.32-.513-.652-.75-1.005 1.275.01 2.574 0 3.916-.052 1.19-.045 2.34-.123 3.475-.212zm-10.6.185c.864.04 1.747.066 2.644.079.185.285.376.558.573.824a66.527 66.527 0 0 1-3.218-.903zm-7.735.572a47.896 47.896 0 0 0 4.087 2.454c-1.402.051-2.75.032-4.029-.066-.308-.024-.605-.059-.906-.09a11.47 11.47 0 0 1-1.336-1.564 13.401 13.401 0 0 0 2.184-.733zm17.601.428c-.256.375-.526.733-.809 1.072a53.613 53.613 0 0 1-1.83-.297c.868-.235 1.745-.49 2.64-.775zm-20.294.412c.33.486.697.94 1.09 1.369a27.301 27.301 0 0 1-2.89-.542c-.25-.19-.499-.38-.748-.582.852.01 1.703-.077 2.548-.245zm-4.126.133c.262.035.522.066.785.085.112.096.226.191.339.285a22.8 22.8 0 0 1-1.124-.37zm19.046.173c.179.04.353.073.53.112l-.343.079c-.061-.065-.127-.125-.187-.191zm1.645.345c.862.172 1.71.323 2.542.448-.474.523-.982.996-1.518 1.421a12.121 12.121 0 0 1-2.081-1.618c.35-.08.702-.162 1.057-.251zm16.799.26c-.331.23-.665.446-.998.652.192-.184.382-.369.561-.564.146-.029.292-.057.437-.088zm-18.405.116c.69.698 1.434 1.301 2.224 1.805-.786.572-1.63 1.04-2.52 1.406-.122-.032-.242-.057-.364-.091-1.828-.509-3.728-1.225-5.686-2.157a47.733 47.733 0 0 0 6.346-.964zm17.13.13c-.078.075-.15.154-.229.227a12.78 12.78 0 0 1-2.032 1.52c-2.896 1.263-5.751 1.626-8.34 1.134a11.763 11.763 0 0 1-.809-.188c.088-.033.175-.062.264-.097a36.563 36.563 0 0 0 4.474-2.12c2.391.036 4.62-.128 6.672-.476zm-12.41.022c1.644.23 3.231.377 4.751.436a35.473 35.473 0 0 1-3.663 1.687c-.288.113-.572.21-.857.313a11.512 11.512 0 0 1-1.882-.83 13.422 13.422 0 0 0 1.652-1.606zm-20.496.36c.787.158 1.604.29 2.45.385.367.35.75.684 1.16.988 1.152.851 2.474 1.508 3.933 1.966-2.452-.495-5.008-1.595-7.543-3.339zm3.253.464c.093.01.182.02.276.027 1.559.12 3.215.131 4.949.03 2.14 1.071 4.223 1.89 6.223 2.466-.103.034-.202.075-.306.106-.796.243-1.626.4-2.481.485-3.161-.118-5.895-1.028-8.016-2.597a11.752 11.752 0 0 1-.645-.518zm15.18 1.1a11.87 11.87 0 0 0 1.576.76c-.969.318-1.916.57-2.842.766-.306-.062-.613-.123-.924-.197.77-.364 1.501-.811 2.19-1.33zm2.305 1.023c.484.157.974.293 1.476.388 1.405.268 2.882.283 4.393.063-2.424.618-5.203.738-8.243.267.779-.2 1.57-.437 2.374-.718zm-5.213.625c.144.037.287.074.43.109-.4.064-.799.116-1.19.157.256-.084.51-.167.76-.266z" overflow="visible" color="#000"></path></g><!----></svg>