<svg data-v-fde0c5aa="" xmlns="http://www.w3.org/2000/svg" viewBox="0 0 300 300" class="font"><!----><defs data-v-fde0c5aa=""><!----></defs><rect data-v-fde0c5aa="" fill="#EDE3FB" x="0" y="0" width="300px" height="300px" class="logo-background-square"></rect><defs data-v-fde0c5aa=""><linearGradient data-v-fde0c5aa="" gradientTransform="rotate(25)" id="da45c608-a8c6-4865-8603-3fbf69c47c38" x1="0%" y1="0%" x2="100%" y2="0%"><stop data-v-fde0c5aa="" offset="0%" stop-color="#0076DD" stop-opacity="1"></stop><stop data-v-fde0c5aa="" offset="100%" stop-color="#E600E9" stop-opacity="1"></stop></linearGradient></defs><g data-v-fde0c5aa="" id="6780894b-938a-46d0-a6d4-ee65ac7a0ac5" fill="url(#da45c608-a8c6-4865-8603-3fbf69c47c38)" transform="matrix(2.299331096345107,0,0,2.299331096345107,40,140.17035824743687)"><path d="M1.26 6.36L1.26 6.36L1.26 6.36Q1.26 5.25 1.18 4.16L1.18 4.16L1.18 4.16Q1.11 3.08 1.01 2.21L1.01 2.21L1.01 2.21Q0.90 1.20 0.77 0.28L0.77 0.28L0.08 0.15L0.08 0.01L0.08 0.01Q0.25 0.06 0.49 0.08L0.49 0.08L0.49 0.08Q0.69 0.11 0.97 0.13L0.97 0.13L0.97 0.13Q1.25 0.15 1.58 0.15L1.58 0.15L1.58 0.15Q2.04 0.15 2.42 0.13L2.42 0.13L2.42 0.13Q2.80 0.11 3.08 0.08L3.08 0.08L3.08 0.08Q3.40 0.06 3.67 0.01L3.67 0.01L3.67 0.15L2.81 0.28L2.81 0.28Q2.76 0.59 2.72 1.33L2.72 1.33L2.72 1.33Q2.69 1.96 2.66 3.10L2.66 3.10L2.66 3.10Q2.63 4.24 2.63 6.12L2.63 6.12L7.48 6.12L7.48 6.12Q7.48 4.63 7.43 3.54L7.43 3.54L7.43 3.54Q7.39 2.45 7.34 1.72L7.34 1.72L7.34 1.72Q7.28 0.87 7.20 0.28L7.20 0.28L6.43 0.15L6.43 0.01L6.43 0.01Q6.65 0.06 6.92 0.08L6.92 0.08L6.92 0.08Q7.15 0.11 7.48 0.13L7.48 0.13L7.48 0.13Q7.80 0.15 8.20 0.15L8.20 0.15L8.20 0.15Q8.57 0.15 8.89 0.13L8.89 0.13L8.89 0.13Q9.21 0.11 9.46 0.08L9.46 0.08L9.46 0.08Q9.76 0.06 10.01 0.01L10.01 0.01L10.01 0.15L9.10 0.28L9.10 0.28Q9.02 1.08 8.96 2.07L8.96 2.07L8.96 2.07Q8.90 2.93 8.86 4.10L8.86 4.10L8.86 4.10Q8.82 5.28 8.82 6.71L8.82 6.71L8.82 6.71Q8.82 8.67 8.88 10.00L8.88 10.00L8.88 10.00Q8.93 11.34 9.00 12.18L9.00 12.18L9.00 12.18Q9.09 13.16 9.20 13.78L9.20 13.78L9.87 13.86L9.87 14L9.87 14Q9.67 13.97 9.42 13.93L9.42 13.93L9.42 13.93Q9.20 13.90 8.90 13.88L8.90 13.88L8.90 13.88Q8.60 13.86 8.20 13.86L8.20 13.86L8.20 13.86Q7.77 13.86 7.45 13.88L7.45 13.88L7.45 13.88Q7.13 13.90 6.89 13.93L6.89 13.93L6.89 13.93Q6.62 13.97 6.43 14L6.43 14L6.43 13.86L7.07 13.78L7.07 13.78Q7.18 12.94 7.27 11.90L7.27 11.90L7.27 11.90Q7.34 11.02 7.41 9.79L7.41 9.79L7.41 9.79Q7.48 8.57 7.48 7.08L7.48 7.08L2.63 7.08L2.63 7.08Q2.63 8.53 2.66 9.75L2.66 9.75L2.66 9.75Q2.69 10.98 2.72 11.87L2.72 11.87L2.72 11.87Q2.76 12.92 2.81 13.78L2.81 13.78L3.71 13.86L3.71 14L3.71 14Q3.47 13.97 3.18 13.93L3.18 13.93L3.18 13.93Q2.93 13.90 2.58 13.88L2.58 13.88L2.58 13.88Q2.24 13.86 1.85 13.86L1.85 13.86L1.85 13.86Q1.44 13.86 1.11 13.88L1.11 13.88L1.11 13.88Q0.78 13.90 0.55 13.93L0.55 13.93L0.55 13.93Q0.27 13.97 0.04 14L0.04 14L0 13.92L0.87 13.78L0.87 13.78Q0.98 12.92 1.06 11.80L1.06 11.80L1.06 11.80Q1.13 10.84 1.20 9.47L1.20 9.47L1.20 9.47Q1.26 8.11 1.26 6.36ZM17.58 9.52L17.58 9.52L17.58 9.52Q17.70 9.79 17.91 10.30L17.91 10.30L17.91 10.30Q18.12 10.82 18.35 11.35L18.35 11.35L18.35 11.35Q18.58 11.89 18.80 12.29L18.80 12.29L18.80 12.29Q19.03 12.70 19.18 12.73L19.18 12.73L19.18 12.73Q18.76 12.96 18.30 13.30L18.30 13.30L18.30 13.30Q17.85 13.64 17.51 14L17.51 14L17.51 14Q17.44 13.69 17.26 13.14L17.26 13.14L17.26 13.14Q17.08 12.59 16.77 11.93L16.77 11.93L16.77 11.93Q16.51 12.19 16.10 12.55L16.10 12.55L16.10 12.55Q15.69 12.91 15.23 13.23L15.23 13.23L15.23 13.23Q14.77 13.55 14.27 13.78L14.27 13.78L14.27 13.78Q13.78 14 13.33 14L13.33 14L13.33 14Q13.01 14 12.66 13.91L12.66 13.91L12.66 13.91Q12.32 13.82 12.04 13.64L12.04 13.64L12.04 13.64Q11.76 13.47 11.59 13.22L11.59 13.22L11.59 13.22Q11.41 12.96 11.41 12.64L11.41 12.64L11.41 12.64Q11.41 12.25 11.82 11.80L11.82 11.80L11.82 11.80Q12.22 11.35 12.82 10.91L12.82 10.91L12.82 10.91Q13.43 10.47 14.13 10.05L14.13 10.05L14.13 10.05Q14.83 9.63 15.41 9.27L15.41 9.27L15.41 9.27Q14.98 8.72 14.60 8.48L14.60 8.48L14.60 8.48Q14.21 8.23 13.75 8.23L13.75 8.23L13.75 8.23Q13.55 8.23 13.24 8.34L13.24 8.34L13.24 8.34Q12.92 8.46 12.63 8.60L12.63 8.60L12.63 8.60Q12.26 8.75 11.90 8.95L11.90 8.95L11.90 8.95Q12.68 8.41 13.41 7.98L13.41 7.98L13.41 7.98Q13.72 7.80 14.04 7.63L14.04 7.63L14.04 7.63Q14.36 7.46 14.66 7.32L14.66 7.32L14.66 7.32Q14.97 7.18 15.22 7.10L15.22 7.10L15.22 7.10Q15.48 7.01 15.67 7.01L15.67 7.01L15.67 7.01Q16.02 7.01 16.32 7.31L16.32 7.31L16.32 7.31Q16.62 7.62 16.86 8.03L16.86 8.03L16.86 8.03Q17.11 8.44 17.28 8.86L17.28 8.86L17.28 8.86Q17.46 9.28 17.58 9.52ZM14.84 12.64L14.84 12.64L14.84 12.64Q15.18 12.64 15.48 12.54L15.48 12.54L15.48 12.54Q15.79 12.45 16.02 12.26L16.02 12.26L16.02 12.26Q16.25 12.08 16.39 11.83L16.39 11.83L16.39 11.83Q16.53 11.58 16.53 11.28L16.53 11.28L16.53 11.28Q16.42 11.10 16.30 10.88L16.30 10.88L16.30 10.88Q16.17 10.67 16.06 10.47L16.06 10.47L16.06 10.47Q15.95 10.22 15.83 9.99L15.83 9.99L15.83 9.99Q15.71 9.76 15.58 9.60L15.58 9.60L15.58 9.60Q15.27 9.72 14.83 9.92L14.83 9.92L14.83 9.92Q14.39 10.12 13.99 10.39L13.99 10.39L13.99 10.39Q13.58 10.67 13.29 10.99L13.29 10.99L13.29 10.99Q13.01 11.31 13.01 11.66L13.01 11.66L13.01 11.66Q13.01 11.86 13.15 12.03L13.15 12.03L13.15 12.03Q13.30 12.21 13.54 12.34L13.54 12.34L13.54 12.34Q13.79 12.47 14.13 12.56L14.13 12.56L14.13 12.56Q14.46 12.64 14.84 12.64ZM25.14 6.99L25.14 6.99L25.14 6.99Q25.77 6.99 26.29 7.24L26.29 7.24L26.29 7.24Q26.81 7.49 27.18 7.90L27.18 7.90L27.18 7.90Q27.55 8.32 27.75 8.86L27.75 8.86L27.75 8.86Q27.96 9.39 27.96 9.97L27.96 9.97L27.96 9.97Q27.96 10.96 27.62 11.91L27.62 11.91L27.62 11.91Q27.29 12.85 26.66 13.58L26.66 13.58L26.66 13.58Q26.04 14.31 25.16 14.75L25.16 14.75L25.16 14.75Q24.29 15.19 23.21 15.19L23.21 15.19L23.21 15.19Q22.67 15.19 22.35 15.14L22.35 15.14L22.35 15.14Q22.04 15.09 21.75 15.04L21.75 15.04L21.75 15.04Q21.46 14.98 21.12 14.93L21.12 14.93L21.12 14.93Q20.78 14.88 20.17 14.88L20.17 14.88L20.17 14.88Q19.92 14.88 19.59 15.00L19.59 15.00L19.59 15.00Q19.25 15.12 18.95 15.37L18.95 15.37L18.95 15.37Q18.65 15.62 18.43 16.00L18.43 16.00L18.43 16.00Q18.21 16.38 18.21 16.88L18.21 16.88L18.21 16.88Q18.21 17.15 18.33 17.35L18.33 17.35L18.33 17.35Q18.44 17.54 18.63 17.70L18.63 17.70L18.63 17.70Q18.82 17.85 19.05 17.95L19.05 17.95L19.05 17.95Q19.29 18.06 19.54 18.13L19.54 18.13L19.54 18.13Q20.12 18.30 20.87 18.34L20.87 18.34L20.87 18.34Q20.08 18.31 19.46 18.16L19.46 18.16L19.46 18.16Q19.19 18.09 18.94 17.98L18.94 17.98L18.94 17.98Q18.69 17.88 18.49 17.72L18.49 17.72L18.49 17.72Q18.30 17.57 18.18 17.37L18.18 17.37L18.18 17.37Q18.06 17.16 18.06 16.88L18.06 16.88L18.06 16.88Q18.06 16.41 18.35 15.92L18.35 15.92L18.35 15.92Q18.65 15.43 19.14 15.04L19.14 15.04L19.14 15.04Q19.63 14.64 20.26 14.39L20.26 14.39L20.26 14.39Q20.90 14.14 21.59 14.14L21.59 14.14L21.59 14.14Q22.11 14.14 22.41 14.20L22.41 14.20L22.41 14.20Q22.72 14.25 23.00 14.31L23.00 14.31L23.00 14.31Q23.28 14.38 23.63 14.43L23.63 14.43L23.63 14.43Q23.98 14.48 24.58 14.48L24.58 14.48L24.58 14.48Q25.21 14.48 25.62 14.28L25.62 14.28L25.62 14.28Q26.03 14.08 26.26 13.70L26.26 13.70L26.26 13.70Q26.49 13.31 26.58 12.75L26.58 12.75L26.58 12.75Q26.67 12.18 26.67 11.42L26.67 11.42L26.67 11.42Q26.67 10.75 26.42 10.15L26.42 10.15L26.42 10.15Q26.17 9.55 25.74 9.09L25.74 9.09L25.74 9.09Q25.31 8.64 24.76 8.37L24.76 8.37L24.76 8.37Q24.21 8.11 23.60 8.11L23.60 8.11L23.60 8.11Q23.24 8.11 23.00 8.18L23.00 8.18L23.00 8.18Q22.76 8.25 22.55 8.44L22.55 8.44L22.55 8.44Q22.55 8.60 22.53 9.03L22.53 9.03L22.53 9.03Q22.50 9.46 22.49 10.11L22.49 10.11L22.49 10.11Q22.48 10.75 22.53 11.58L22.53 11.58L22.53 11.58Q22.57 12.40 22.72 13.34L22.72 13.34L22.72 13.34Q22.25 13.34 21.75 13.55L21.75 13.55L21.75 13.55Q21.25 13.76 20.87 14L20.87 14L20.87 14Q20.92 13.75 20.96 13.23L20.96 13.23L20.96 13.23Q21 12.71 21.03 12.09L21.03 12.09L21.03 12.09Q21.06 11.47 21.05 10.79L21.05 10.79L21.05 10.79Q21.04 10.12 21 9.55L21 9.55L21 9.55Q20.96 8.99 20.85 8.59L20.85 8.59L20.85 8.59Q20.75 8.19 20.57 8.11L20.57 8.11L20.57 8.11Q20.33 8.06 20.15 8.09L20.15 8.09L20.15 8.09Q20.06 8.11 19.99 8.13L19.99 8.13L19.99 8.13Q20.44 7.81 20.83 7.56L20.83 7.56L20.83 7.56Q21.17 7.35 21.52 7.17L21.52 7.17L21.52 7.17Q21.87 6.99 22.09 6.99L22.09 6.99L22.09 6.99Q22.25 6.99 22.34 7.02L22.34 7.02L22.34 7.02Q22.43 7.06 22.48 7.17L22.48 7.17L22.48 7.17Q22.53 7.29 22.54 7.50L22.54 7.50L22.54 7.50Q22.55 7.70 22.55 8.04L22.55 8.04L22.55 8.04Q23.23 7.55 23.88 7.27L23.88 7.27L23.88 7.27Q24.54 6.99 25.14 6.99ZM35.56 9.52L35.56 9.52L35.56 9.52Q35.67 9.79 35.88 10.30L35.88 10.30L35.88 10.30Q36.09 10.82 36.32 11.35L36.32 11.35L36.32 11.35Q36.55 11.89 36.78 12.29L36.78 12.29L36.78 12.29Q37.00 12.70 37.16 12.73L37.16 12.73L37.16 12.73Q36.74 12.96 36.28 13.30L36.28 13.30L36.28 13.30Q35.83 13.64 35.49 14L35.49 14L35.49 14Q35.42 13.69 35.24 13.14L35.24 13.14L35.24 13.14Q35.06 12.59 34.75 11.93L34.75 11.93L34.75 11.93Q34.48 12.19 34.08 12.55L34.08 12.55L34.08 12.55Q33.67 12.91 33.21 13.23L33.21 13.23L33.21 13.23Q32.75 13.55 32.25 13.78L32.25 13.78L32.25 13.78Q31.75 14 31.30 14L31.30 14L31.30 14Q30.98 14 30.64 13.91L30.64 13.91L30.64 13.91Q30.30 13.82 30.02 13.64L30.02 13.64L30.02 13.64Q29.74 13.47 29.56 13.22L29.56 13.22L29.56 13.22Q29.39 12.96 29.39 12.64L29.39 12.64L29.39 12.64Q29.39 12.25 29.79 11.80L29.79 11.80L29.79 11.80Q30.20 11.35 30.80 10.91L30.80 10.91L30.80 10.91Q31.40 10.47 32.10 10.05L32.10 10.05L32.10 10.05Q32.80 9.63 33.39 9.27L33.39 9.27L33.39 9.27Q32.96 8.72 32.57 8.48L32.57 8.48L32.57 8.48Q32.19 8.23 31.72 8.23L31.72 8.23L31.72 8.23Q31.53 8.23 31.21 8.34L31.21 8.34L31.21 8.34Q30.90 8.46 30.60 8.60L30.60 8.60L30.60 8.60Q30.24 8.75 29.88 8.95L29.88 8.95L29.88 8.95Q30.66 8.41 31.39 7.98L31.39 7.98L31.39 7.98Q31.70 7.80 32.02 7.63L32.02 7.63L32.02 7.63Q32.34 7.46 32.64 7.32L32.64 7.32L32.64 7.32Q32.94 7.18 33.20 7.10L33.20 7.10L33.20 7.10Q33.46 7.01 33.64 7.01L33.64 7.01L33.64 7.01Q33.99 7.01 34.29 7.31L34.29 7.31L34.29 7.31Q34.59 7.62 34.84 8.03L34.84 8.03L34.84 8.03Q35.08 8.44 35.26 8.86L35.26 8.86L35.26 8.86Q35.43 9.28 35.56 9.52ZM32.82 12.64L32.82 12.64L32.82 12.64Q33.15 12.64 33.46 12.54L33.46 12.54L33.46 12.54Q33.77 12.45 34.00 12.26L34.00 12.26L34.00 12.26Q34.23 12.08 34.37 11.83L34.37 11.83L34.37 11.83Q34.51 11.58 34.51 11.28L34.51 11.28L34.51 11.28Q34.40 11.10 34.27 10.88L34.27 10.88L34.27 10.88Q34.15 10.67 34.03 10.47L34.03 10.47L34.03 10.47Q33.92 10.22 33.80 9.99L33.80 9.99L33.80 9.99Q33.68 9.76 33.56 9.60L33.56 9.60L33.56 9.60Q33.25 9.72 32.81 9.92L32.81 9.92L32.81 9.92Q32.37 10.12 31.96 10.39L31.96 10.39L31.96 10.39Q31.56 10.67 31.27 10.99L31.27 10.99L31.27 10.99Q30.98 11.31 30.98 11.66L30.98 11.66L30.98 11.66Q30.98 11.86 31.13 12.03L31.13 12.03L31.13 12.03Q31.28 12.21 31.52 12.34L31.52 12.34L31.52 12.34Q31.77 12.47 32.10 12.56L32.10 12.56L32.10 12.56Q32.44 12.64 32.82 12.64ZM44.73 9.52L44.73 9.52L44.73 9.52Q44.84 9.79 45.05 10.30L45.05 10.30L45.05 10.30Q45.26 10.82 45.49 11.35L45.49 11.35L45.49 11.35Q45.72 11.89 45.95 12.29L45.95 12.29L45.95 12.29Q46.17 12.70 46.33 12.73L46.33 12.73L46.33 12.73Q45.91 12.96 45.45 13.30L45.45 13.30L45.45 13.30Q45.00 13.64 44.66 14L44.66 14L44.66 14Q44.59 13.69 44.41 13.14L44.41 13.14L44.41 13.14Q44.23 12.59 43.92 11.93L43.92 11.93L43.92 11.93Q43.65 12.19 43.25 12.55L43.25 12.55L43.25 12.55Q42.84 12.91 42.38 13.23L42.38 13.23L42.38 13.23Q41.92 13.55 41.42 13.78L41.42 13.78L41.42 13.78Q40.92 14 40.47 14L40.47 14L40.47 14Q40.15 14 39.81 13.91L39.81 13.91L39.81 13.91Q39.47 13.82 39.19 13.64L39.19 13.64L39.19 13.64Q38.91 13.47 38.73 13.22L38.73 13.22L38.73 13.22Q38.56 12.96 38.56 12.64L38.56 12.64L38.56 12.64Q38.56 12.25 38.96 11.80L38.96 11.80L38.96 11.80Q39.37 11.35 39.97 10.91L39.97 10.91L39.97 10.91Q40.57 10.47 41.27 10.05L41.27 10.05L41.27 10.05Q41.97 9.63 42.56 9.27L42.56 9.27L42.56 9.27Q42.13 8.72 41.74 8.48L41.74 8.48L41.74 8.48Q41.36 8.23 40.89 8.23L40.89 8.23L40.89 8.23Q40.70 8.23 40.38 8.34L40.38 8.34L40.38 8.34Q40.07 8.46 39.77 8.60L39.77 8.60L39.77 8.60Q39.41 8.75 39.05 8.95L39.05 8.95L39.05 8.95Q39.83 8.41 40.56 7.98L40.56 7.98L40.56 7.98Q40.87 7.80 41.19 7.63L41.19 7.63L41.19 7.63Q41.51 7.46 41.81 7.32L41.81 7.32L41.81 7.32Q42.11 7.18 42.37 7.10L42.37 7.10L42.37 7.10Q42.63 7.01 42.81 7.01L42.81 7.01L42.81 7.01Q43.16 7.01 43.46 7.31L43.46 7.31L43.46 7.31Q43.76 7.62 44.01 8.03L44.01 8.03L44.01 8.03Q44.25 8.44 44.43 8.86L44.43 8.86L44.43 8.86Q44.60 9.28 44.73 9.52ZM41.99 12.64L41.99 12.64L41.99 12.64Q42.32 12.64 42.63 12.54L42.63 12.54L42.63 12.54Q42.94 12.45 43.17 12.26L43.17 12.26L43.17 12.26Q43.40 12.08 43.54 11.83L43.54 11.83L43.54 11.83Q43.68 11.58 43.68 11.28L43.68 11.28L43.68 11.28Q43.57 11.10 43.44 10.88L43.44 10.88L43.44 10.88Q43.32 10.67 43.20 10.47L43.20 10.47L43.20 10.47Q43.09 10.22 42.97 9.99L42.97 9.99L42.97 9.99Q42.85 9.76 42.73 9.60L42.73 9.60L42.73 9.60Q42.42 9.72 41.98 9.92L41.98 9.92L41.98 9.92Q41.54 10.12 41.13 10.39L41.13 10.39L41.13 10.39Q40.73 10.67 40.44 10.99L40.44 10.99L40.44 10.99Q40.15 11.31 40.15 11.66L40.15 11.66L40.15 11.66Q40.15 11.86 40.30 12.03L40.30 12.03L40.30 12.03Q40.45 12.21 40.69 12.34L40.69 12.34L40.69 12.34Q40.94 12.47 41.27 12.56L41.27 12.56L41.27 12.56Q41.61 12.64 41.99 12.64ZM70.74 15.44L70.74 15.44L70.74 15.44Q70.36 15.61 69.92 15.75L69.92 15.75L69.92 15.75Q69.54 15.86 69.05 15.95L69.05 15.95L69.05 15.95Q68.57 16.04 68.04 16.04L68.04 16.04L68.04 16.04Q67.56 16.04 66.90 15.95L66.90 15.95L66.90 15.95Q66.23 15.85 65.41 15.60L65.41 15.60L65.41 15.60Q64.60 15.36 63.64 14.97L63.64 14.97L63.64 14.97Q62.69 14.57 61.66 13.99L61.66 13.99L61.66 13.99Q61.49 13.99 61.31 14.01L61.31 14.01L61.31 14.01Q61.12 14.04 60.93 14.04L60.93 14.04L60.93 14.04Q59.91 14.04 59.15 13.74L59.15 13.74L59.15 13.74Q58.39 13.44 57.85 12.93L57.85 12.93L57.85 12.93Q57.32 12.42 56.98 11.75L56.98 11.75L56.98 11.75Q56.64 11.07 56.45 10.33L56.45 10.33L56.45 10.33Q56.27 9.59 56.20 8.83L56.20 8.83L56.20 8.83Q56.13 8.06 56.13 7.38L56.13 7.38L56.13 7.38Q56.13 5.82 56.52 4.47L56.52 4.47L56.52 4.47Q56.92 3.12 57.59 2.12L57.59 2.12L57.59 2.12Q58.25 1.12 59.11 0.55L59.11 0.55L59.11 0.55Q59.96-0.01 60.89-0.01L60.89-0.01L60.89-0.01Q62.01-0.01 62.92 0.53L62.92 0.53L62.92 0.53Q63.83 1.06 64.46 1.98L64.46 1.98L64.46 1.98Q65.10 2.90 65.44 4.12L65.44 4.12L65.44 4.12Q65.79 5.33 65.79 6.69L65.79 6.69L65.79 6.69Q65.79 7.94 65.61 8.96L65.61 8.96L65.61 8.96Q65.44 9.98 65.11 10.81L65.11 10.81L65.11 10.81Q64.79 11.63 64.34 12.26L64.34 12.26L64.34 12.26Q63.90 12.88 63.35 13.30L63.35 13.30L63.35 13.30Q63.70 13.30 64.25 13.51L64.25 13.51L64.25 13.51Q64.43 13.57 64.76 13.71L64.76 13.71L64.76 13.71Q65.10 13.86 65.53 14.06L65.53 14.06L65.53 14.06Q65.95 14.25 66.43 14.46L66.43 14.46L66.43 14.46Q66.91 14.67 67.36 14.87L67.36 14.87L67.36 14.87Q67.82 15.06 68.22 15.20L68.22 15.20L68.22 15.20Q68.63 15.34 68.91 15.39L68.91 15.39L68.91 15.39Q69.24 15.46 69.57 15.48L69.57 15.48L69.57 15.48Q69.89 15.50 70.15 15.48L70.15 15.48L70.15 15.48Q70.46 15.47 70.74 15.44ZM57.97 7.04L57.97 7.04L57.97 7.04Q57.97 7.56 58.04 8.26L58.04 8.26L58.04 8.26Q58.10 8.96 58.25 9.69L58.25 9.69L58.25 9.69Q58.39 10.42 58.63 11.13L58.63 11.13L58.63 11.13Q58.87 11.84 59.23 12.40L59.23 12.40L59.23 12.40Q59.58 12.96 60.06 13.31L60.06 13.31L60.06 13.31Q60.54 13.65 61.15 13.65L61.15 13.65L61.15 13.65Q61.95 13.65 62.47 13.14L62.47 13.14L62.47 13.14Q63 12.63 63.30 11.74L63.30 11.74L63.30 11.74Q63.60 10.85 63.72 9.63L63.72 9.63L63.72 9.63Q63.84 8.41 63.84 7L63.84 7L63.84 7Q63.84 6.47 63.77 5.77L63.77 5.77L63.77 5.77Q63.70 5.07 63.54 4.33L63.54 4.33L63.54 4.33Q63.38 3.60 63.13 2.89L63.13 2.89L63.13 2.89Q62.87 2.18 62.52 1.63L62.52 1.63L62.52 1.63Q62.16 1.08 61.69 0.74L61.69 0.74L61.69 0.74Q61.22 0.41 60.62 0.41L60.62 0.41L60.62 0.41Q59.95 0.41 59.45 0.96L59.45 0.96L59.45 0.96Q58.95 1.51 58.63 2.44L58.63 2.44L58.63 2.44Q58.30 3.36 58.13 4.56L58.13 4.56L58.13 4.56Q57.97 5.75 57.97 7.04ZM74.41 12.18L74.41 12.18L74.41 12.18Q74.49 12.32 74.59 12.47L74.59 12.47L74.59 12.47Q74.68 12.61 74.80 12.72L74.80 12.72L74.80 12.72Q74.93 12.82 75.12 12.86L75.12 12.86L75.12 12.86Q75.31 12.89 75.59 12.80L75.59 12.80L75.59 12.80Q74.96 13.16 74.35 13.45L74.35 13.45L74.35 13.45Q73.74 13.73 73.26 14.03L73.26 14.03L73.26 14.03Q72.88 13.85 72.79 13.40L72.79 13.40L72.79 13.40Q72.70 12.96 72.70 12.22L72.70 12.22L72.70 12.22Q72.44 12.43 72.14 12.73L72.14 12.73L72.14 12.73Q71.85 13.03 71.50 13.31L71.50 13.31L71.50 13.31Q71.15 13.59 70.73 13.80L70.73 13.80L70.73 13.80Q70.31 14 69.79 14L69.79 14L69.79 14Q69.64 14 69.42 13.94L69.42 13.94L69.42 13.94Q69.20 13.87 68.98 13.74L68.98 13.74L68.98 13.74Q68.75 13.61 68.56 13.39L68.56 13.39L68.56 13.39Q68.36 13.17 68.24 12.87L68.24 12.87L68.24 12.87Q68.21 12.70 68.19 12.46L68.19 12.46L68.19 12.46Q68.18 12.22 68.17 11.98L68.17 11.98L68.17 11.98Q68.15 11.73 68.14 11.49L68.14 11.49L68.14 11.49Q68.14 11.26 68.14 11.09L68.14 11.09L68.14 11.09Q68.14 10.50 68.15 10.02L68.15 10.02L68.15 10.02Q68.17 9.55 68.14 9.18L68.14 9.18L68.14 9.18Q68.11 8.82 68.01 8.58L68.01 8.58L68.01 8.58Q67.91 8.34 67.69 8.23L67.69 8.23L67.69 8.23Q67.52 8.16 67.35 8.13L67.35 8.13L67.35 8.13Q67.27 8.12 67.20 8.11L67.20 8.11L67.20 8.11Q67.51 8.01 67.86 7.85L67.86 7.85L67.86 7.85Q68.15 7.73 68.51 7.52L68.51 7.52L68.51 7.52Q68.87 7.32 69.23 7.04L69.23 7.04L69.23 7.04Q69.50 7.11 69.59 7.43L69.59 7.43L69.59 7.43Q69.68 7.74 69.68 8.21L69.68 8.21L69.68 8.21Q69.68 8.68 69.64 9.25L69.64 9.25L69.64 9.25Q69.59 9.81 69.59 10.37L69.59 10.37L69.59 10.37Q69.59 10.82 69.67 11.22L69.67 11.22L69.67 11.22Q69.75 11.62 69.94 11.92L69.94 11.92L69.94 11.92Q70.13 12.22 70.45 12.40L70.45 12.40L70.45 12.40Q70.78 12.59 71.30 12.59L71.30 12.59L71.30 12.59Q71.72 12.59 72.09 12.39L72.09 12.39L72.09 12.39Q72.46 12.19 72.70 11.98L72.70 11.98L72.70 11.98Q72.74 11.66 72.75 11.37L72.75 11.37L72.75 11.37Q72.76 11.07 72.76 10.75L72.76 10.75L72.76 10.75Q72.76 10.22 72.77 9.79L72.77 9.79L72.77 9.79Q72.79 9.35 72.77 9.03L72.77 9.03L72.77 9.03Q72.74 8.71 72.68 8.50L72.68 8.50L72.68 8.50Q72.62 8.30 72.46 8.23L72.46 8.23L72.46 8.23Q72.38 8.19 72.26 8.18L72.26 8.18L72.26 8.18Q72.14 8.16 72.03 8.15L72.03 8.15L72.03 8.15Q71.89 8.13 71.76 8.13L71.76 8.13L71.76 8.13Q72.25 7.99 72.72 7.81L72.72 7.81L72.72 7.81Q73.11 7.66 73.53 7.45L73.53 7.45L73.53 7.45Q73.96 7.24 74.26 6.99L74.26 6.99L74.26 6.99Q74.26 7.15 74.24 7.56L74.24 7.56L74.24 7.56Q74.23 7.97 74.22 8.50L74.22 8.50L74.22 8.50Q74.21 9.03 74.21 9.63L74.21 9.63L74.21 9.63Q74.20 10.22 74.22 10.74L74.22 10.74L74.22 10.74Q74.24 11.26 74.28 11.65L74.28 11.65L74.28 11.65Q74.33 12.04 74.41 12.18ZM78.69 5.24L78.69 5.24L78.69 5.24Q78.51 5.38 78.33 5.53L78.33 5.53L78.33 5.53Q78.18 5.67 77.99 5.85L77.99 5.85L77.99 5.85Q77.80 6.03 77.64 6.23L77.64 6.23L77.64 6.23Q77.49 5.98 77.32 5.80L77.32 5.80L77.32 5.80Q77.15 5.61 77 5.49L77 5.49L77 5.49Q76.83 5.33 76.66 5.24L76.66 5.24L76.66 5.24Q76.85 5.10 77.01 4.94L77.01 4.94L77.01 4.94Q77.17 4.80 77.34 4.62L77.34 4.62L77.34 4.62Q77.50 4.44 77.64 4.23L77.64 4.23L77.64 4.23Q77.80 4.47 77.98 4.65L77.98 4.65L77.98 4.65Q78.16 4.84 78.32 4.97L78.32 4.97L78.32 4.97Q78.50 5.12 78.69 5.24ZM76.44 8.12L76.44 8.12L76.44 8.12Q76.78 7.98 77.08 7.88L77.08 7.88L77.08 7.88Q77.38 7.77 77.65 7.65L77.65 7.65L77.65 7.65Q77.92 7.53 78.18 7.38L78.18 7.38L78.18 7.38Q78.44 7.24 78.69 7.01L78.69 7.01L78.69 7.01Q78.81 7.39 78.79 7.93L78.79 7.93L78.79 7.93Q78.78 8.47 78.73 9.06L78.73 9.06L78.73 9.06Q78.68 9.66 78.67 10.26L78.67 10.26L78.67 10.26Q78.65 10.86 78.77 11.35L78.77 11.35L78.77 11.35Q78.89 11.84 79.19 12.17L79.19 12.17L79.19 12.17Q79.49 12.50 80.09 12.56L80.09 12.56L80.09 12.56Q79.49 12.95 79.06 13.30L79.06 13.30L79.06 13.30Q78.64 13.65 78.22 14.01L78.22 14.01L78.22 14.01Q78.09 13.96 77.94 13.89L77.94 13.89L77.94 13.89Q77.78 13.82 77.64 13.69L77.64 13.69L77.64 13.69Q77.50 13.55 77.40 13.35L77.40 13.35L77.40 13.35Q77.29 13.15 77.28 12.82L77.28 12.82L77.28 12.82Q77.29 11.87 77.32 11.01L77.32 11.01L77.32 11.01Q77.35 10.15 77.29 9.50L77.29 9.50L77.29 9.50Q77.24 8.85 77.05 8.48L77.05 8.48L77.05 8.48Q76.86 8.11 76.44 8.12ZM83.45-6.83L83.45-6.83L83.45-6.83Q83.29-6.37 83.19-5.64L83.19-5.64L83.19-5.64Q83.10-4.90 83.06-4.00L83.06-4.00L83.06-4.00Q83.02-3.09 83.01-2.07L83.01-2.07L83.01-2.07Q83.01-1.04 83.01 0.01L83.01 0.01L83.01 0.01Q83.01 0.71 82.98 1.80L82.98 1.80L82.98 1.80Q82.96 2.88 82.94 4.11L82.94 4.11L82.94 4.11Q82.92 5.33 82.91 6.59L82.91 6.59L82.91 6.59Q82.89 7.84 82.90 8.90L82.90 8.90L82.90 8.90Q82.91 9.95 82.94 10.70L82.94 10.70L82.94 10.70Q82.98 11.45 83.06 11.65L83.06 11.65L83.06 11.65Q83.23 12.03 83.51 12.36L83.51 12.36L83.51 12.36Q83.79 12.68 84.32 12.73L84.32 12.73L84.32 12.73Q83.79 13.12 83.38 13.44L83.38 13.44L83.38 13.44Q82.98 13.76 82.64 14.10L82.64 14.10L82.64 14.10Q82.38 13.96 82.17 13.74L82.17 13.74L82.17 13.74Q81.96 13.52 81.81 13.29L81.81 13.29L81.81 13.29Q81.66 13.05 81.57 12.82L81.57 12.82L81.57 12.82Q81.48 12.59 81.47 12.40L81.47 12.40L81.47 12.40Q81.45 12.05 81.45 11.19L81.45 11.19L81.45 11.19Q81.45 10.33 81.46 9.19L81.46 9.19L81.46 9.19Q81.47 8.05 81.49 6.73L81.49 6.73L81.49 6.73Q81.51 5.42 81.52 4.16L81.52 4.16L81.52 4.16Q81.54 2.90 81.54 1.81L81.54 1.81L81.54 1.81Q81.55 0.71 81.55 0.01L81.55 0.01L81.55 0.01Q81.55-1.55 81.56-2.70L81.56-2.70L81.56-2.70Q81.56-3.84 81.54-4.66L81.54-4.66L81.54-4.66Q81.52-5.49 81.47-6.04L81.47-6.04L81.47-6.04Q81.42-6.59 81.33-6.99L81.33-6.99L81.33-6.99Q81.75-6.99 82.19-7.20L82.19-7.20L82.19-7.20Q82.64-7.41 83.11-7.71L83.11-7.71L83.11-7.71Q83.58-8.02 84.08-8.39L84.08-8.39L84.08-8.39Q84.57-8.75 85.09-9.06L85.09-9.06L85.09-9.06Q85.61-9.37 86.14-9.58L86.14-9.58L86.14-9.58Q86.67-9.79 87.22-9.79L87.22-9.79L87.22-9.79Q87.99-9.79 88.53-9.54L88.53-9.54L88.53-9.54Q89.07-9.30 89.40-8.90L89.40-8.90L89.40-8.90Q89.74-8.50 89.89-7.99L89.89-7.99L89.89-7.99Q90.05-7.48 90.05-6.93L90.05-6.93L90.05-6.93Q90.05-5.61 89.63-4.50L89.63-4.50L89.63-4.50Q89.21-3.39 88.52-2.46L88.52-2.46L88.52-2.46Q87.82-1.54 86.94-0.79L86.94-0.79L86.94-0.79Q86.06-0.04 85.13 0.55L85.13 0.55L85.13 0.55Q82.98 1.92 80.23 2.77L80.23 2.77L80.23 2.77Q82.94 1.90 85.06 0.53L85.06 0.53L85.06 0.53Q85.96-0.06 86.83-0.80L86.83-0.80L86.83-0.80Q87.70-1.55 88.38-2.48L88.38-2.48L88.38-2.48Q89.07-3.40 89.48-4.52L89.48-4.52L89.48-4.52Q89.89-5.63 89.89-6.93L89.89-6.93L89.89-6.93Q89.89-7.45 89.77-7.94L89.77-7.94L89.77-7.94Q89.64-8.43 89.33-8.81L89.33-8.81L89.33-8.81Q89.03-9.18 88.51-9.41L88.51-9.41L88.51-9.41Q87.99-9.63 87.22-9.63L87.22-9.63L87.22-9.63Q86.42-9.63 85.76-9.31L85.76-9.31L85.76-9.31Q85.09-8.99 84.61-8.53L84.61-8.53L84.61-8.53Q84.13-8.08 83.83-7.60L83.83-7.60L83.83-7.60Q83.52-7.13 83.45-6.83ZM87.28-0.03L87.28-0.03L87.28-0.03Q87.28-3.22 87.22-4.93L87.22-4.93L87.22-4.93Q87.16-6.65 87.00-7.01L87.00-7.01L87.00-7.01Q87.42-7.01 87.86-7.22L87.86-7.22L87.86-7.22Q88.30-7.42 88.76-7.73L88.76-7.73L88.76-7.73Q89.22-8.04 89.71-8.40L89.71-8.40L89.71-8.40Q90.20-8.76 90.71-9.07L90.71-9.07L90.71-9.07Q91.22-9.38 91.78-9.58L91.78-9.58L91.78-9.58Q92.33-9.79 92.92-9.79L92.92-9.79L92.92-9.79Q93.70-9.79 94.23-9.55L94.23-9.55L94.23-9.55Q94.77-9.32 95.09-8.93L95.09-8.93L95.09-8.93Q95.41-8.54 95.54-8.04L95.54-8.04L95.54-8.04Q95.68-7.55 95.68-7.01L95.68-7.01L95.68-7.01Q95.68-5.70 95.26-4.59L95.26-4.59L95.26-4.59Q94.84-3.47 94.15-2.54L94.15-2.54L94.15-2.54Q93.46-1.61 92.58-0.85L92.58-0.85L92.58-0.85Q91.70-0.10 90.79 0.49L90.79 0.49L90.79 0.49Q88.65 1.88 85.92 2.74L85.92 2.74L85.92 2.74Q88.61 1.88 90.72 0.49L90.72 0.49L90.72 0.49Q91.62-0.10 92.48-0.85L92.48-0.85L92.48-0.85Q93.35-1.61 94.03-2.54L94.03-2.54L94.03-2.54Q94.71-3.47 95.12-4.59L95.12-4.59L95.12-4.59Q95.54-5.70 95.54-7.01L95.54-7.01L95.54-7.01Q95.54-7.55 95.41-8.02L95.41-8.02L95.41-8.02Q95.28-8.50 94.98-8.86L94.98-8.86L94.98-8.86Q94.68-9.23 94.18-9.44L94.18-9.44L94.18-9.44Q93.67-9.65 92.92-9.65L92.92-9.65L92.92-9.65Q92.09-9.65 91.43-9.33L91.43-9.33L91.43-9.33Q90.78-9.02 90.29-8.57L90.29-8.57L90.29-8.57Q89.81-8.13 89.51-7.66L89.51-7.66L89.51-7.66Q89.21-7.20 89.11-6.87L89.11-6.87L89.11-6.87Q88.96-6.40 88.87-5.85L88.87-5.85L88.87-5.85Q88.79-5.31 88.75-4.53L88.75-4.53L88.75-4.53Q88.70-3.75 88.70-2.65L88.70-2.65L88.70-2.65Q88.69-1.55 88.69 0.03L88.69 0.03L88.69 0.03Q88.69 0.71 88.69 1.48L88.69 1.48L88.69 1.48Q88.69 2.25 88.70 3.03L88.70 3.03L88.70 3.03Q88.70 3.81 88.71 4.52L88.71 4.52L88.71 4.52Q88.72 5.24 88.73 5.80L88.73 5.80L88.73 5.80Q88.73 6.36 88.73 6.71L88.73 6.71L88.73 6.71Q88.73 7.06 88.73 7.08L88.73 7.08L88.73 7.08Q88.98 7.17 89.27 7.20L89.27 7.20L89.27 7.20Q89.56 7.24 89.84 7.24L89.84 7.24L89.84 7.24Q90.12 7.24 90.37 7.22L90.37 7.22L90.37 7.22Q90.62 7.20 90.79 7.18L90.79 7.18L90.79 7.18Q90.62 7.38 90.35 7.51L90.35 7.51L90.35 7.51Q90.08 7.64 89.78 7.74L89.78 7.74L89.78 7.74Q89.47 7.84 89.19 7.90L89.19 7.90L89.19 7.90Q88.90 7.97 88.69 8.02L88.69 8.02L88.69 8.02Q88.72 8.54 88.68 9.06L88.68 9.06L88.68 9.06Q88.63 9.59 88.63 10.08L88.63 10.08L88.63 10.08Q88.63 10.57 88.72 11.00L88.72 11.00L88.72 11.00Q88.80 11.44 89.06 11.77L89.06 11.77L89.06 11.77Q89.32 12.11 89.80 12.33L89.80 12.33L89.80 12.33Q90.29 12.54 91.08 12.59L91.08 12.59L91.08 12.59Q90.87 12.77 90.64 13.01L90.64 13.01L90.64 13.01Q90.41 13.24 90.16 13.45L90.16 13.45L90.16 13.45Q89.91 13.66 89.64 13.81L89.64 13.81L89.64 13.81Q89.38 13.96 89.10 13.96L89.10 13.96L89.10 13.96Q88.80 13.96 88.51 13.84L88.51 13.84L88.51 13.84Q88.21 13.72 87.98 13.48L87.98 13.48L87.98 13.48Q87.75 13.24 87.60 12.91L87.60 12.91L87.60 12.91Q87.44 12.57 87.43 12.12L87.43 12.12L87.43 12.12Q87.39 10.99 87.36 9.93L87.36 9.93L87.36 9.93Q87.33 8.86 87.33 7.98L87.33 7.98L87.33 7.98Q86.97 7.95 86.72 7.92L86.72 7.92L86.72 7.92Q86.48 7.90 86.32 7.87L86.32 7.87L86.32 7.87Q86.14 7.83 86.02 7.78L86.02 7.78L86.02 7.78Q86.20 7.71 86.41 7.62L86.41 7.62L86.41 7.62Q86.59 7.53 86.80 7.41L86.80 7.41L86.80 7.41Q87.01 7.29 87.22 7.13L87.22 7.13L87.22 7.13Q87.23 7.07 87.24 6.71L87.24 6.71L87.24 6.71Q87.25 6.36 87.26 5.79L87.26 5.79L87.26 5.79Q87.26 5.22 87.27 4.50L87.27 4.50L87.27 4.50Q87.28 3.78 87.28 3.00L87.28 3.00L87.28 3.00Q87.28 2.23 87.28 1.45L87.28 1.45L87.28 1.45Q87.28 0.67 87.28-0.03Z"></path></g><!----><!----></svg>